<svg width="445" height="79" viewBox="0 0 445 79" fill="none" xmlns="http://www.w3.org/2000/svg">
<path d="M46.6 7.8V19H44.008V14.408H38.92V19H36.328V7.8H38.92V12.216H44.008V7.8H46.6ZM57.5059 14.728C57.5059 14.76 57.4899 14.984 57.4579 15.4H50.9459C51.0632 15.9333 51.3405 16.3547 51.7779 16.664C52.2152 16.9733 52.7592 17.128 53.4099 17.128C53.8579 17.128 54.2525 17.064 54.5939 16.936C54.9459 16.7973 55.2712 16.584 55.5699 16.296L56.8979 17.736C56.0872 18.664 54.9032 19.128 53.3459 19.128C52.3752 19.128 51.5165 18.9413 50.7699 18.568C50.0232 18.184 49.4472 17.656 49.0419 16.984C48.6365 16.312 48.4339 15.5493 48.4339 14.696C48.4339 13.8533 48.6312 13.096 49.0259 12.424C49.4312 11.7413 49.9805 11.2133 50.6739 10.84C51.3779 10.456 52.1619 10.264 53.0259 10.264C53.8685 10.264 54.6312 10.4453 55.3139 10.808C55.9965 11.1707 56.5299 11.6933 56.9139 12.376C57.3085 13.048 57.5059 13.832 57.5059 14.728ZM53.0419 12.152C52.4765 12.152 52.0019 12.312 51.6179 12.632C51.2339 12.952 50.9992 13.3893 50.9139 13.944H55.1539C55.0685 13.4 54.8339 12.968 54.4499 12.648C54.0659 12.3173 53.5965 12.152 53.0419 12.152ZM62.4053 10.264C63.7386 10.264 64.7626 10.584 65.4773 11.224C66.1919 11.8533 66.5493 12.808 66.5493 14.088V19H64.2133V17.928C63.7439 18.728 62.8693 19.128 61.5893 19.128C60.9279 19.128 60.3519 19.016 59.8613 18.792C59.3813 18.568 59.0133 18.2587 58.7573 17.864C58.5013 17.4693 58.3733 17.0213 58.3733 16.52C58.3733 15.72 58.6719 15.0907 59.2693 14.632C59.8773 14.1733 60.8106 13.944 62.0693 13.944H64.0533C64.0533 13.4 63.8879 12.984 63.5573 12.696C63.2266 12.3973 62.7306 12.248 62.0693 12.248C61.6106 12.248 61.1573 12.3227 60.7093 12.472C60.2719 12.6107 59.8986 12.8027 59.5893 13.048L58.6933 11.304C59.1626 10.9733 59.7226 10.7173 60.3733 10.536C61.0346 10.3547 61.7119 10.264 62.4053 10.264ZM62.2133 17.448C62.6399 17.448 63.0186 17.352 63.3493 17.16C63.6799 16.9573 63.9146 16.664 64.0533 16.28V15.4H62.3413C61.3173 15.4 60.8053 15.736 60.8053 16.408C60.8053 16.728 60.9279 16.984 61.1733 17.176C61.4293 17.3573 61.7759 17.448 62.2133 17.448ZM77.67 7.128V19H75.286V18.008C74.6673 18.7547 73.7713 19.128 72.598 19.128C71.7873 19.128 71.0513 18.9467 70.39 18.584C69.7393 18.2213 69.2273 17.704 68.854 17.032C68.4807 16.36 68.294 15.5813 68.294 14.696C68.294 13.8107 68.4807 13.032 68.854 12.36C69.2273 11.688 69.7393 11.1707 70.39 10.808C71.0513 10.4453 71.7873 10.264 72.598 10.264C73.6967 10.264 74.5553 10.6107 75.174 11.304V7.128H77.67ZM73.03 17.08C73.6593 17.08 74.182 16.8667 74.598 16.44C75.014 16.0027 75.222 15.4213 75.222 14.696C75.222 13.9707 75.014 13.3947 74.598 12.968C74.182 12.5307 73.6593 12.312 73.03 12.312C72.39 12.312 71.862 12.5307 71.446 12.968C71.03 13.3947 70.822 13.9707 70.822 14.696C70.822 15.4213 71.03 16.0027 71.446 16.44C71.862 16.8667 72.39 17.08 73.03 17.08ZM90.1114 19.192C88.9487 19.192 87.898 18.9413 86.9594 18.44C86.0314 17.9387 85.3007 17.2507 84.7674 16.376C84.2447 15.4907 83.9834 14.4987 83.9834 13.4C83.9834 12.3013 84.2447 11.3147 84.7674 10.44C85.3007 9.55467 86.0314 8.86133 86.9594 8.36C87.898 7.85867 88.9487 7.608 90.1114 7.608C91.274 7.608 92.3194 7.85867 93.2474 8.36C94.1754 8.86133 94.906 9.55467 95.4394 10.44C95.9727 11.3147 96.2394 12.3013 96.2394 13.4C96.2394 14.4987 95.9727 15.4907 95.4394 16.376C94.906 17.2507 94.1754 17.9387 93.2474 18.44C92.3194 18.9413 91.274 19.192 90.1114 19.192ZM90.1114 16.984C90.7727 16.984 91.37 16.8347 91.9034 16.536C92.4367 16.2267 92.8527 15.8 93.1514 15.256C93.4607 14.712 93.6154 14.0933 93.6154 13.4C93.6154 12.7067 93.4607 12.088 93.1514 11.544C92.8527 11 92.4367 10.5787 91.9034 10.28C91.37 9.97067 90.7727 9.816 90.1114 9.816C89.45 9.816 88.8527 9.97067 88.3194 10.28C87.786 10.5787 87.3647 11 87.0554 11.544C86.7567 12.088 86.6074 12.7067 86.6074 13.4C86.6074 14.0933 86.7567 14.712 87.0554 15.256C87.3647 15.8 87.786 16.2267 88.3194 16.536C88.8527 16.8347 89.45 16.984 90.1114 16.984ZM100.747 10.584H102.955V12.504H100.811V19H98.3154V12.504H96.9874V10.584H98.3154V10.2C98.3154 9.21867 98.6034 8.44 99.1794 7.864C99.766 7.288 100.587 7 101.643 7C102.017 7 102.369 7.04267 102.699 7.128C103.041 7.20267 103.323 7.31467 103.547 7.464L102.891 9.272C102.603 9.06933 102.267 8.968 101.883 8.968C101.126 8.968 100.747 9.384 100.747 10.216V10.584ZM106.935 10.584H109.143V12.504H106.999V19H104.503V12.504H103.175V10.584H104.503V10.2C104.503 9.21867 104.791 8.44 105.367 7.864C105.954 7.288 106.775 7 107.831 7C108.204 7 108.556 7.04267 108.887 7.128C109.228 7.20267 109.511 7.31467 109.735 7.464L109.079 9.272C108.791 9.06933 108.455 8.968 108.071 8.968C107.314 8.968 106.935 9.384 106.935 10.216V10.584ZM111.671 10.392H114.167V19H111.671V10.392ZM112.919 9.192C112.46 9.192 112.087 9.05867 111.799 8.792C111.511 8.52533 111.367 8.19467 111.367 7.8C111.367 7.40533 111.511 7.07467 111.799 6.808C112.087 6.54133 112.46 6.408 112.919 6.408C113.378 6.408 113.751 6.536 114.039 6.792C114.327 7.048 114.471 7.368 114.471 7.752C114.471 8.168 114.327 8.51467 114.039 8.792C113.751 9.05867 113.378 9.192 112.919 9.192ZM120.64 19.128C119.723 19.128 118.896 18.9413 118.16 18.568C117.435 18.184 116.864 17.656 116.448 16.984C116.043 16.312 115.84 15.5493 115.84 14.696C115.84 13.8427 116.043 13.08 116.448 12.408C116.864 11.736 117.435 11.2133 118.16 10.84C118.896 10.456 119.723 10.264 120.64 10.264C121.547 10.264 122.336 10.456 123.008 10.84C123.691 11.2133 124.187 11.752 124.496 12.456L122.56 13.496C122.112 12.7067 121.467 12.312 120.624 12.312C119.973 12.312 119.435 12.5253 119.008 12.952C118.581 13.3787 118.368 13.96 118.368 14.696C118.368 15.432 118.581 16.0133 119.008 16.44C119.435 16.8667 119.973 17.08 120.624 17.08C121.477 17.08 122.123 16.6853 122.56 15.896L124.496 16.952C124.187 17.6347 123.691 18.168 123.008 18.552C122.336 18.936 121.547 19.128 120.64 19.128ZM134.256 14.728C134.256 14.76 134.24 14.984 134.208 15.4H127.696C127.813 15.9333 128.091 16.3547 128.528 16.664C128.965 16.9733 129.509 17.128 130.16 17.128C130.608 17.128 131.003 17.064 131.344 16.936C131.696 16.7973 132.021 16.584 132.32 16.296L133.648 17.736C132.837 18.664 131.653 19.128 130.096 19.128C129.125 19.128 128.267 18.9413 127.52 18.568C126.773 18.184 126.197 17.656 125.792 16.984C125.387 16.312 125.184 15.5493 125.184 14.696C125.184 13.8533 125.381 13.096 125.776 12.424C126.181 11.7413 126.731 11.2133 127.424 10.84C128.128 10.456 128.912 10.264 129.776 10.264C130.619 10.264 131.381 10.4453 132.064 10.808C132.747 11.1707 133.28 11.6933 133.664 12.376C134.059 13.048 134.256 13.832 134.256 14.728ZM129.792 12.152C129.227 12.152 128.752 12.312 128.368 12.632C127.984 12.952 127.749 13.3893 127.664 13.944H131.904C131.819 13.4 131.584 12.968 131.2 12.648C130.816 12.3173 130.347 12.152 129.792 12.152ZM136.862 13.384C136.424 13.384 136.056 13.2347 135.758 12.936C135.459 12.6373 135.31 12.264 135.31 11.816C135.31 11.3573 135.459 10.9893 135.758 10.712C136.056 10.424 136.424 10.28 136.862 10.28C137.299 10.28 137.667 10.424 137.966 10.712C138.264 10.9893 138.414 11.3573 138.414 11.816C138.414 12.264 138.264 12.6373 137.966 12.936C137.667 13.2347 137.299 13.384 136.862 13.384ZM136.862 19.128C136.424 19.128 136.056 18.9787 135.758 18.68C135.459 18.3813 135.31 18.008 135.31 17.56C135.31 17.1013 135.459 16.7333 135.758 16.456C136.056 16.168 136.424 16.024 136.862 16.024C137.299 16.024 137.667 16.168 137.966 16.456C138.264 16.7333 138.414 17.1013 138.414 17.56C138.414 18.008 138.264 18.3813 137.966 18.68C137.667 18.9787 137.299 19.128 136.862 19.128ZM147.42 7.8V19H146.268V8.824H143.628V7.8H147.42ZM153.586 7.704C155.068 7.704 156.204 8.19467 156.994 9.176C157.783 10.1467 158.178 11.5227 158.178 13.304C158.178 14.552 157.964 15.608 157.538 16.472C157.111 17.336 156.514 17.992 155.746 18.44C154.978 18.8773 154.082 19.096 153.058 19.096C151.948 19.096 151.063 18.8933 150.402 18.488L150.866 17.56C151.399 17.912 152.124 18.088 153.042 18.088C154.279 18.088 155.25 17.6987 155.954 16.92C156.658 16.1307 157.01 14.9893 157.01 13.496C157.01 13.2187 156.994 12.9147 156.962 12.584C156.684 13.192 156.242 13.6667 155.634 14.008C155.026 14.3387 154.327 14.504 153.538 14.504C152.802 14.504 152.146 14.3653 151.57 14.088C151.004 13.8107 150.562 13.4213 150.242 12.92C149.922 12.408 149.762 11.816 149.762 11.144C149.762 10.4613 149.927 9.85867 150.258 9.336C150.588 8.81333 151.042 8.41333 151.618 8.136C152.204 7.848 152.86 7.704 153.586 7.704ZM153.714 13.528C154.279 13.528 154.775 13.4213 155.202 13.208C155.639 12.9947 155.98 12.7013 156.226 12.328C156.471 11.9547 156.594 11.5387 156.594 11.08C156.594 10.6533 156.476 10.2587 156.242 9.896C156.018 9.53333 155.682 9.24 155.234 9.016C154.786 8.792 154.252 8.68 153.634 8.68C152.823 8.68 152.162 8.904 151.65 9.352C151.148 9.78933 150.898 10.376 150.898 11.112C150.898 11.848 151.148 12.4347 151.65 12.872C152.162 13.3093 152.85 13.528 153.714 13.528ZM163.499 12.6C164.673 12.664 165.563 12.984 166.171 13.56C166.79 14.1253 167.099 14.8667 167.099 15.784C167.099 16.424 166.945 16.9947 166.635 17.496C166.326 17.9867 165.867 18.376 165.259 18.664C164.651 18.952 163.91 19.096 163.035 19.096C162.225 19.096 161.457 18.968 160.731 18.712C160.017 18.4453 159.441 18.0933 159.003 17.656L159.563 16.744C159.937 17.128 160.433 17.4427 161.051 17.688C161.67 17.9227 162.331 18.04 163.035 18.04C163.953 18.04 164.662 17.8427 165.163 17.448C165.665 17.0427 165.915 16.488 165.915 15.784C165.915 15.0907 165.665 14.5467 165.163 14.152C164.662 13.7573 163.905 13.56 162.891 13.56H162.091V12.712L165.195 8.824H159.467V7.8H166.667V8.616L163.499 12.6ZM171.827 7.8V19H170.675V8.824H168.035V7.8H171.827ZM195.059 7.8L191.283 19H190.035L186.755 9.448L183.459 19H182.227L178.451 7.8H179.667L182.899 17.432L186.243 7.8H187.347L190.643 17.48L193.923 7.8H195.059ZM204.148 7.704C205.631 7.704 206.767 8.19467 207.556 9.176C208.345 10.1467 208.74 11.5227 208.74 13.304C208.74 14.552 208.527 15.608 208.1 16.472C207.673 17.336 207.076 17.992 206.308 18.44C205.54 18.8773 204.644 19.096 203.62 19.096C202.511 19.096 201.625 18.8933 200.964 18.488L201.428 17.56C201.961 17.912 202.687 18.088 203.604 18.088C204.841 18.088 205.812 17.6987 206.516 16.92C207.22 16.1307 207.572 14.9893 207.572 13.496C207.572 13.2187 207.556 12.9147 207.524 12.584C207.247 13.192 206.804 13.6667 206.196 14.008C205.588 14.3387 204.889 14.504 204.1 14.504C203.364 14.504 202.708 14.3653 202.132 14.088C201.567 13.8107 201.124 13.4213 200.804 12.92C200.484 12.408 200.324 11.816 200.324 11.144C200.324 10.4613 200.489 9.85867 200.82 9.336C201.151 8.81333 201.604 8.41333 202.18 8.136C202.767 7.848 203.423 7.704 204.148 7.704ZM204.276 13.528C204.841 13.528 205.337 13.4213 205.764 13.208C206.201 12.9947 206.543 12.7013 206.788 12.328C207.033 11.9547 207.156 11.5387 207.156 11.08C207.156 10.6533 207.039 10.2587 206.804 9.896C206.58 9.53333 206.244 9.24 205.796 9.016C205.348 8.792 204.815 8.68 204.196 8.68C203.385 8.68 202.724 8.904 202.212 9.352C201.711 9.78933 201.46 10.376 201.46 11.112C201.46 11.848 201.711 12.4347 202.212 12.872C202.724 13.3093 203.412 13.528 204.276 13.528ZM213.354 12.392C214.975 12.392 216.154 12.6853 216.89 13.272C217.637 13.848 218.01 14.6587 218.01 15.704C218.01 16.3547 217.855 16.936 217.546 17.448C217.247 17.96 216.794 18.3653 216.186 18.664C215.578 18.952 214.831 19.096 213.946 19.096C213.146 19.096 212.383 18.968 211.658 18.712C210.943 18.4453 210.367 18.0933 209.93 17.656L210.49 16.744C210.863 17.128 211.354 17.4427 211.962 17.688C212.57 17.9227 213.226 18.04 213.93 18.04C214.858 18.04 215.573 17.832 216.074 17.416C216.586 17 216.842 16.4453 216.842 15.752C216.842 14.984 216.554 14.4027 215.978 14.008C215.413 13.6133 214.453 13.416 213.098 13.416H210.714L211.29 7.8H217.418V8.824H212.298L211.914 12.392H213.354ZM224.657 18.488C224.443 18.68 224.177 18.8293 223.857 18.936C223.547 19.032 223.222 19.08 222.881 19.08C222.091 19.08 221.483 18.8667 221.057 18.44C220.63 18.0133 220.417 17.4107 220.417 16.632V11.544H218.913V10.584H220.417V8.744H221.553V10.584H224.113V11.544H221.553V16.568C221.553 17.0693 221.675 17.4533 221.921 17.72C222.177 17.976 222.539 18.104 223.009 18.104C223.243 18.104 223.467 18.0667 223.681 17.992C223.905 17.9173 224.097 17.8107 224.257 17.672L224.657 18.488ZM231.013 10.52C232.069 10.52 232.906 10.8293 233.525 11.448C234.154 12.056 234.469 12.9467 234.469 14.12V19H233.333V14.232C233.333 13.3573 233.114 12.6907 232.677 12.232C232.239 11.7733 231.615 11.544 230.805 11.544C229.898 11.544 229.178 11.816 228.645 12.36C228.122 12.8933 227.861 13.6347 227.861 14.584V19H226.725V7.128H227.861V12.056C228.17 11.5653 228.597 11.1867 229.141 10.92C229.685 10.6533 230.309 10.52 231.013 10.52ZM245.068 19.096C244.236 19.096 243.436 18.9627 242.668 18.696C241.911 18.4293 241.324 18.0773 240.908 17.64L241.372 16.728C241.778 17.1333 242.316 17.464 242.988 17.72C243.66 17.9653 244.354 18.088 245.068 18.088C246.071 18.088 246.823 17.9067 247.324 17.544C247.826 17.1707 248.076 16.6907 248.076 16.104C248.076 15.656 247.938 15.2987 247.66 15.032C247.394 14.7653 247.063 14.5627 246.668 14.424C246.274 14.2747 245.724 14.1147 245.02 13.944C244.178 13.7307 243.506 13.528 243.004 13.336C242.503 13.1333 242.071 12.8293 241.708 12.424C241.356 12.0187 241.18 11.4693 241.18 10.776C241.18 10.2107 241.33 9.69867 241.628 9.24C241.927 8.77067 242.386 8.39733 243.004 8.12C243.623 7.84267 244.391 7.704 245.308 7.704C245.948 7.704 246.572 7.79467 247.18 7.976C247.799 8.14667 248.332 8.38667 248.78 8.696L248.38 9.64C247.911 9.33067 247.41 9.10133 246.876 8.952C246.343 8.792 245.82 8.712 245.308 8.712C244.327 8.712 243.586 8.904 243.084 9.288C242.594 9.66133 242.348 10.1467 242.348 10.744C242.348 11.192 242.482 11.5547 242.748 11.832C243.026 12.0987 243.367 12.3067 243.772 12.456C244.188 12.5947 244.743 12.7493 245.436 12.92C246.258 13.1227 246.919 13.3253 247.42 13.528C247.932 13.72 248.364 14.0187 248.716 14.424C249.068 14.8187 249.244 15.3573 249.244 16.04C249.244 16.6053 249.09 17.1227 248.78 17.592C248.482 18.0507 248.018 18.4187 247.388 18.696C246.759 18.9627 245.986 19.096 245.068 19.096ZM256.016 18.488C255.803 18.68 255.536 18.8293 255.216 18.936C254.907 19.032 254.581 19.08 254.24 19.08C253.451 19.08 252.843 18.8667 252.416 18.44C251.989 18.0133 251.776 17.4107 251.776 16.632V11.544H250.272V10.584H251.776V8.744H252.912V10.584H255.472V11.544H252.912V16.568C252.912 17.0693 253.035 17.4533 253.28 17.72C253.536 17.976 253.899 18.104 254.368 18.104C254.603 18.104 254.827 18.0667 255.04 17.992C255.264 17.9173 255.456 17.8107 255.616 17.672L256.016 18.488ZM259.172 12.232C259.439 11.6667 259.833 11.24 260.356 10.952C260.889 10.664 261.545 10.52 262.324 10.52V11.624L262.052 11.608C261.167 11.608 260.473 11.88 259.972 12.424C259.471 12.968 259.22 13.7307 259.22 14.712V19H258.084V10.584H259.172V12.232ZM271.631 15.144H264.591C264.655 16.0187 264.991 16.728 265.599 17.272C266.207 17.8053 266.975 18.072 267.903 18.072C268.425 18.072 268.905 17.9813 269.343 17.8C269.78 17.608 270.159 17.3307 270.479 16.968L271.119 17.704C270.745 18.152 270.276 18.4933 269.711 18.728C269.156 18.9627 268.543 19.08 267.871 19.08C267.007 19.08 266.239 18.8987 265.567 18.536C264.905 18.1627 264.388 17.6507 264.015 17C263.641 16.3493 263.455 15.6133 263.455 14.792C263.455 13.9707 263.631 13.2347 263.983 12.584C264.345 11.9333 264.836 11.4267 265.455 11.064C266.084 10.7013 266.788 10.52 267.567 10.52C268.345 10.52 269.044 10.7013 269.663 11.064C270.281 11.4267 270.767 11.9333 271.119 12.584C271.471 13.224 271.647 13.96 271.647 14.792L271.631 15.144ZM267.567 11.496C266.756 11.496 266.073 11.7573 265.519 12.28C264.975 12.792 264.665 13.464 264.591 14.296H270.559C270.484 13.464 270.169 12.792 269.615 12.28C269.071 11.7573 268.388 11.496 267.567 11.496ZM281.287 15.144H274.247C274.311 16.0187 274.647 16.728 275.255 17.272C275.863 17.8053 276.631 18.072 277.559 18.072C278.082 18.072 278.562 17.9813 278.999 17.8C279.436 17.608 279.815 17.3307 280.135 16.968L280.775 17.704C280.402 18.152 279.932 18.4933 279.367 18.728C278.812 18.9627 278.199 19.08 277.527 19.08C276.663 19.08 275.895 18.8987 275.223 18.536C274.562 18.1627 274.044 17.6507 273.671 17C273.298 16.3493 273.111 15.6133 273.111 14.792C273.111 13.9707 273.287 13.2347 273.639 12.584C274.002 11.9333 274.492 11.4267 275.111 11.064C275.74 10.7013 276.444 10.52 277.223 10.52C278.002 10.52 278.7 10.7013 279.319 11.064C279.938 11.4267 280.423 11.9333 280.775 12.584C281.127 13.224 281.303 13.96 281.303 14.792L281.287 15.144ZM277.223 11.496C276.412 11.496 275.73 11.7573 275.175 12.28C274.631 12.792 274.322 13.464 274.247 14.296H280.215C280.14 13.464 279.826 12.792 279.271 12.28C278.727 11.7573 278.044 11.496 277.223 11.496ZM290.943 15.144H283.903C283.967 16.0187 284.303 16.728 284.911 17.272C285.519 17.8053 286.287 18.072 287.215 18.072C287.738 18.072 288.218 17.9813 288.655 17.8C289.093 17.608 289.471 17.3307 289.791 16.968L290.431 17.704C290.058 18.152 289.589 18.4933 289.023 18.728C288.469 18.9627 287.855 19.08 287.183 19.08C286.319 19.08 285.551 18.8987 284.879 18.536C284.218 18.1627 283.701 17.6507 283.327 17C282.954 16.3493 282.767 15.6133 282.767 14.792C282.767 13.9707 282.943 13.2347 283.295 12.584C283.658 11.9333 284.149 11.4267 284.767 11.064C285.397 10.7013 286.101 10.52 286.879 10.52C287.658 10.52 288.357 10.7013 288.975 11.064C289.594 11.4267 290.079 11.9333 290.431 12.584C290.783 13.224 290.959 13.96 290.959 14.792L290.943 15.144ZM286.879 11.496C286.069 11.496 285.386 11.7573 284.831 12.28C284.287 12.792 283.978 13.464 283.903 14.296H289.871C289.797 13.464 289.482 12.792 288.927 12.28C288.383 11.7573 287.701 11.496 286.879 11.496ZM297.704 18.488C297.49 18.68 297.224 18.8293 296.904 18.936C296.594 19.032 296.269 19.08 295.928 19.08C295.138 19.08 294.53 18.8667 294.104 18.44C293.677 18.0133 293.464 17.4107 293.464 16.632V11.544H291.96V10.584H293.464V8.744H294.6V10.584H297.16V11.544H294.6V16.568C294.6 17.0693 294.722 17.4533 294.968 17.72C295.224 17.976 295.586 18.104 296.056 18.104C296.29 18.104 296.514 18.0667 296.728 17.992C296.952 17.9173 297.144 17.8107 297.304 17.672L297.704 18.488ZM309.063 19.096C307.954 19.096 306.951 18.8507 306.055 18.36C305.17 17.8693 304.471 17.192 303.959 16.328C303.458 15.4533 303.207 14.4773 303.207 13.4C303.207 12.3227 303.458 11.352 303.959 10.488C304.471 9.61333 305.175 8.93067 306.071 8.44C306.967 7.94933 307.97 7.704 309.079 7.704C309.911 7.704 310.679 7.84267 311.383 8.12C312.087 8.39733 312.684 8.80267 313.175 9.336L312.423 10.088C311.548 9.20267 310.444 8.76 309.111 8.76C308.226 8.76 307.42 8.96267 306.695 9.368C305.97 9.77333 305.399 10.328 304.983 11.032C304.578 11.736 304.375 12.5253 304.375 13.4C304.375 14.2747 304.578 15.064 304.983 15.768C305.399 16.472 305.97 17.0267 306.695 17.432C307.42 17.8373 308.226 18.04 309.111 18.04C310.455 18.04 311.559 17.592 312.423 16.696L313.175 17.448C312.684 17.9813 312.082 18.392 311.367 18.68C310.663 18.9573 309.895 19.096 309.063 19.096ZM319.747 10.52C320.803 10.52 321.64 10.8293 322.259 11.448C322.888 12.056 323.203 12.9467 323.203 14.12V19H322.067V14.232C322.067 13.3573 321.848 12.6907 321.411 12.232C320.974 11.7733 320.35 11.544 319.539 11.544C318.632 11.544 317.912 11.816 317.379 12.36C316.856 12.8933 316.595 13.6347 316.595 14.584V19H315.459V7.128H316.595V12.056C316.904 11.5653 317.331 11.1867 317.875 10.92C318.419 10.6533 319.043 10.52 319.747 10.52ZM326.287 10.584H327.423V19H326.287V10.584ZM326.863 8.744C326.628 8.744 326.431 8.664 326.271 8.504C326.111 8.344 326.031 8.152 326.031 7.928C326.031 7.71467 326.111 7.528 326.271 7.368C326.431 7.208 326.628 7.128 326.863 7.128C327.098 7.128 327.295 7.208 327.455 7.368C327.615 7.51733 327.695 7.69867 327.695 7.912C327.695 8.14667 327.615 8.344 327.455 8.504C327.295 8.664 327.098 8.744 326.863 8.744ZM334.072 19.08C333.24 19.08 332.493 18.8987 331.832 18.536C331.181 18.1733 330.669 17.6667 330.296 17.016C329.923 16.3547 329.736 15.6133 329.736 14.792C329.736 13.9707 329.923 13.2347 330.296 12.584C330.669 11.9333 331.181 11.4267 331.832 11.064C332.493 10.7013 333.24 10.52 334.072 10.52C334.797 10.52 335.443 10.664 336.008 10.952C336.584 11.2293 337.037 11.64 337.368 12.184L336.52 12.76C336.243 12.344 335.891 12.0347 335.464 11.832C335.037 11.6187 334.573 11.512 334.072 11.512C333.464 11.512 332.915 11.6507 332.424 11.928C331.944 12.1947 331.565 12.5787 331.288 13.08C331.021 13.5813 330.888 14.152 330.888 14.792C330.888 15.4427 331.021 16.0187 331.288 16.52C331.565 17.0107 331.944 17.3947 332.424 17.672C332.915 17.9387 333.464 18.072 334.072 18.072C334.573 18.072 335.037 17.9707 335.464 17.768C335.891 17.5653 336.243 17.256 336.52 16.84L337.368 17.416C337.037 17.96 336.584 18.376 336.008 18.664C335.432 18.9413 334.787 19.08 334.072 19.08ZM342.544 10.52C343.642 10.52 344.485 10.7973 345.072 11.352C345.658 11.896 345.952 12.7067 345.952 13.784V19H344.864V17.688C344.608 18.1253 344.229 18.4667 343.728 18.712C343.237 18.9573 342.65 19.08 341.968 19.08C341.029 19.08 340.282 18.856 339.728 18.408C339.173 17.96 338.896 17.368 338.896 16.632C338.896 15.9173 339.152 15.3413 339.664 14.904C340.186 14.4667 341.013 14.248 342.144 14.248H344.816V13.736C344.816 13.0107 344.613 12.4613 344.208 12.088C343.802 11.704 343.21 11.512 342.432 11.512C341.898 11.512 341.386 11.6027 340.896 11.784C340.405 11.9547 339.984 12.1947 339.632 12.504L339.12 11.656C339.546 11.2933 340.058 11.016 340.656 10.824C341.253 10.6213 341.882 10.52 342.544 10.52ZM342.144 18.184C342.784 18.184 343.333 18.04 343.792 17.752C344.25 17.4533 344.592 17.0267 344.816 16.472V15.096H342.176C340.736 15.096 340.016 15.5973 340.016 16.6C340.016 17.0907 340.202 17.48 340.576 17.768C340.949 18.0453 341.472 18.184 342.144 18.184ZM356.86 10.584V17.976C356.86 19.4053 356.508 20.4613 355.804 21.144C355.111 21.8373 354.06 22.184 352.652 22.184C351.874 22.184 351.132 22.0667 350.428 21.832C349.735 21.608 349.17 21.2933 348.732 20.888L349.308 20.024C349.714 20.3867 350.204 20.6693 350.78 20.872C351.367 21.0747 351.98 21.176 352.62 21.176C353.687 21.176 354.471 20.9253 354.972 20.424C355.474 19.9333 355.724 19.1653 355.724 18.12V17.048C355.372 17.5813 354.908 17.9867 354.332 18.264C353.767 18.5413 353.138 18.68 352.444 18.68C351.655 18.68 350.935 18.5093 350.284 18.168C349.644 17.816 349.138 17.3307 348.764 16.712C348.402 16.0827 348.22 15.3733 348.22 14.584C348.22 13.7947 348.402 13.0907 348.764 12.472C349.138 11.8533 349.644 11.3733 350.284 11.032C350.924 10.6907 351.644 10.52 352.444 10.52C353.159 10.52 353.804 10.664 354.38 10.952C354.956 11.24 355.42 11.656 355.772 12.2V10.584H356.86ZM352.556 17.672C353.164 17.672 353.714 17.544 354.204 17.288C354.695 17.0213 355.074 16.6533 355.34 16.184C355.618 15.7147 355.756 15.1813 355.756 14.584C355.756 13.9867 355.618 13.4587 355.34 13C355.074 12.5307 354.695 12.168 354.204 11.912C353.724 11.6453 353.175 11.512 352.556 11.512C351.948 11.512 351.399 11.64 350.908 11.896C350.428 12.152 350.05 12.5147 349.772 12.984C349.506 13.4533 349.372 13.9867 349.372 14.584C349.372 15.1813 349.506 15.7147 349.772 16.184C350.05 16.6533 350.428 17.0213 350.908 17.288C351.399 17.544 351.948 17.672 352.556 17.672ZM363.477 19.08C362.666 19.08 361.936 18.8987 361.285 18.536C360.634 18.1627 360.122 17.6507 359.749 17C359.376 16.3493 359.189 15.6133 359.189 14.792C359.189 13.9707 359.376 13.2347 359.749 12.584C360.122 11.9333 360.634 11.4267 361.285 11.064C361.936 10.7013 362.666 10.52 363.477 10.52C364.288 10.52 365.018 10.7013 365.669 11.064C366.32 11.4267 366.826 11.9333 367.189 12.584C367.562 13.2347 367.749 13.9707 367.749 14.792C367.749 15.6133 367.562 16.3493 367.189 17C366.826 17.6507 366.32 18.1627 365.669 18.536C365.018 18.8987 364.288 19.08 363.477 19.08ZM363.477 18.072C364.074 18.072 364.608 17.9387 365.077 17.672C365.557 17.3947 365.93 17.0053 366.197 16.504C366.464 16.0027 366.597 15.432 366.597 14.792C366.597 14.152 366.464 13.5813 366.197 13.08C365.93 12.5787 365.557 12.1947 365.077 11.928C364.608 11.6507 364.074 11.512 363.477 11.512C362.88 11.512 362.341 11.6507 361.861 11.928C361.392 12.1947 361.018 12.5787 360.741 13.08C360.474 13.5813 360.341 14.152 360.341 14.792C360.341 15.432 360.474 16.0027 360.741 16.504C361.018 17.0053 361.392 17.3947 361.861 17.672C362.341 17.9387 362.88 18.072 363.477 18.072ZM374.496 7.8H375.68V19H374.496V7.8ZM379.324 7.8H380.508V17.976H386.78V19H379.324V7.8ZM389.118 17.336C389.364 17.336 389.566 17.4213 389.726 17.592C389.886 17.752 389.966 17.9547 389.966 18.2C389.966 18.328 389.945 18.4667 389.902 18.616C389.87 18.7653 389.817 18.936 389.742 19.128L389.07 21.336H388.302L388.846 19.016C388.676 18.9627 388.537 18.8667 388.43 18.728C388.324 18.5787 388.27 18.4027 388.27 18.2C388.27 17.9547 388.35 17.752 388.51 17.592C388.67 17.4213 388.873 17.336 389.118 17.336ZM400.456 12.296C401.192 12.296 401.843 12.4347 402.408 12.712C402.984 12.9893 403.432 13.384 403.752 13.896C404.072 14.3973 404.232 14.984 404.232 15.656C404.232 16.3387 404.067 16.9413 403.736 17.464C403.406 17.9867 402.947 18.392 402.36 18.68C401.784 18.9573 401.134 19.096 400.408 19.096C398.926 19.096 397.79 18.6107 397 17.64C396.211 16.6587 395.816 15.2773 395.816 13.496C395.816 12.248 396.03 11.192 396.456 10.328C396.883 9.464 397.48 8.81333 398.248 8.376C399.016 7.928 399.912 7.704 400.936 7.704C402.046 7.704 402.931 7.90667 403.592 8.312L403.128 9.24C402.595 8.888 401.87 8.712 400.952 8.712C399.715 8.712 398.744 9.10667 398.04 9.896C397.336 10.6747 396.984 11.8107 396.984 13.304C396.984 13.5707 397 13.8747 397.032 14.216C397.31 13.608 397.752 13.1387 398.36 12.808C398.968 12.4667 399.667 12.296 400.456 12.296ZM400.36 18.12C401.171 18.12 401.827 17.9013 402.328 17.464C402.84 17.016 403.096 16.424 403.096 15.688C403.096 14.952 402.84 14.3653 402.328 13.928C401.827 13.4907 401.144 13.272 400.28 13.272C399.715 13.272 399.214 13.3787 398.776 13.592C398.35 13.8053 398.014 14.0987 397.768 14.472C397.523 14.8453 397.4 15.2613 397.4 15.72C397.4 16.1467 397.512 16.5413 397.736 16.904C397.971 17.2667 398.312 17.56 398.76 17.784C399.208 18.008 399.742 18.12 400.36 18.12ZM410.03 19.096C409.166 19.096 408.393 18.8667 407.71 18.408C407.038 17.9493 406.51 17.2933 406.126 16.44C405.753 15.576 405.566 14.5627 405.566 13.4C405.566 12.2373 405.753 11.2293 406.126 10.376C406.51 9.512 407.038 8.85067 407.71 8.392C408.393 7.93333 409.166 7.704 410.03 7.704C410.894 7.704 411.662 7.93333 412.334 8.392C413.017 8.85067 413.55 9.512 413.934 10.376C414.318 11.2293 414.51 12.2373 414.51 13.4C414.51 14.5627 414.318 15.576 413.934 16.44C413.55 17.2933 413.017 17.9493 412.334 18.408C411.662 18.8667 410.894 19.096 410.03 19.096ZM410.03 18.04C410.681 18.04 411.252 17.8587 411.742 17.496C412.244 17.1333 412.633 16.6053 412.91 15.912C413.188 15.2187 413.326 14.3813 413.326 13.4C413.326 12.4187 413.188 11.5813 412.91 10.888C412.633 10.1947 412.244 9.66667 411.742 9.304C411.252 8.94133 410.681 8.76 410.03 8.76C409.38 8.76 408.804 8.94133 408.302 9.304C407.812 9.66667 407.428 10.1947 407.15 10.888C406.873 11.5813 406.734 12.4187 406.734 13.4C406.734 14.3813 406.873 15.2187 407.15 15.912C407.428 16.6053 407.812 17.1333 408.302 17.496C408.804 17.8587 409.38 18.04 410.03 18.04ZM420.8 12.296C421.536 12.296 422.187 12.4347 422.752 12.712C423.328 12.9893 423.776 13.384 424.096 13.896C424.416 14.3973 424.576 14.984 424.576 15.656C424.576 16.3387 424.411 16.9413 424.08 17.464C423.749 17.9867 423.291 18.392 422.704 18.68C422.128 18.9573 421.477 19.096 420.752 19.096C419.269 19.096 418.133 18.6107 417.344 17.64C416.555 16.6587 416.16 15.2773 416.16 13.496C416.16 12.248 416.373 11.192 416.8 10.328C417.227 9.464 417.824 8.81333 418.592 8.376C419.36 7.928 420.256 7.704 421.28 7.704C422.389 7.704 423.275 7.90667 423.936 8.312L423.472 9.24C422.939 8.888 422.213 8.712 421.296 8.712C420.059 8.712 419.088 9.10667 418.384 9.896C417.68 10.6747 417.328 11.8107 417.328 13.304C417.328 13.5707 417.344 13.8747 417.376 14.216C417.653 13.608 418.096 13.1387 418.704 12.808C419.312 12.4667 420.011 12.296 420.8 12.296ZM420.704 18.12C421.515 18.12 422.171 17.9013 422.672 17.464C423.184 17.016 423.44 16.424 423.44 15.688C423.44 14.952 423.184 14.3653 422.672 13.928C422.171 13.4907 421.488 13.272 420.624 13.272C420.059 13.272 419.557 13.3787 419.12 13.592C418.693 13.8053 418.357 14.0987 418.112 14.472C417.867 14.8453 417.744 15.2613 417.744 15.72C417.744 16.1467 417.856 16.5413 418.08 16.904C418.315 17.2667 418.656 17.56 419.104 17.784C419.552 18.008 420.085 18.12 420.704 18.12ZM435.43 16.056H433.19V19H432.038V16.056H425.718V15.224L431.654 7.8H432.934L427.206 15.032H432.07V12.44H433.19V15.032H435.43V16.056ZM440.062 12.6C441.235 12.664 442.126 12.984 442.734 13.56C443.353 14.1253 443.662 14.8667 443.662 15.784C443.662 16.424 443.507 16.9947 443.198 17.496C442.889 17.9867 442.43 18.376 441.822 18.664C441.214 18.952 440.473 19.096 439.598 19.096C438.787 19.096 438.019 18.968 437.294 18.712C436.579 18.4453 436.003 18.0933 435.566 17.656L436.126 16.744C436.499 17.128 436.995 17.4427 437.614 17.688C438.233 17.9227 438.894 18.04 439.598 18.04C440.515 18.04 441.225 17.8427 441.726 17.448C442.227 17.0427 442.478 16.488 442.478 15.784C442.478 15.0907 442.227 14.5467 441.726 14.152C441.225 13.7573 440.467 13.56 439.454 13.56H438.654V12.712L441.758 8.824H436.03V7.8H443.23V8.616L440.062 12.6Z" fill="#333333"/>
<path d="M41.176 60.8C42.168 60.8 43.0267 60.9653 43.752 61.296C44.488 61.6267 45.0533 62.096 45.448 62.704C45.8427 63.312 46.04 64.032 46.04 64.864C46.04 65.6853 45.8427 66.4053 45.448 67.024C45.0533 67.632 44.488 68.1013 43.752 68.432C43.0267 68.752 42.168 68.912 41.176 68.912H38.92V72H36.328V60.8H41.176ZM41.032 66.8C41.8107 66.8 42.4027 66.6347 42.808 66.304C43.2133 65.9627 43.416 65.4827 43.416 64.864C43.416 64.2347 43.2133 63.7547 42.808 63.424C42.4027 63.0827 41.8107 62.912 41.032 62.912H38.92V66.8H41.032ZM53.1028 63.264C54.1694 63.264 55.0281 63.584 55.6788 64.224C56.3401 64.864 56.6708 65.8133 56.6708 67.072V72H54.1748V67.456C54.1748 66.7733 54.0254 66.2667 53.7268 65.936C53.4281 65.5947 52.9961 65.424 52.4308 65.424C51.8014 65.424 51.3001 65.6213 50.9268 66.016C50.5534 66.4 50.3668 66.976 50.3668 67.744V72H47.8708V60.128H50.3668V64.288C50.6974 63.9573 51.0974 63.7067 51.5668 63.536C52.0361 63.3547 52.5481 63.264 53.1028 63.264ZM63.123 72.128C62.2163 72.128 61.4003 71.9413 60.675 71.568C59.9603 71.184 59.4003 70.656 58.995 69.984C58.5897 69.312 58.387 68.5493 58.387 67.696C58.387 66.8427 58.5897 66.08 58.995 65.408C59.4003 64.736 59.9603 64.2133 60.675 63.84C61.4003 63.456 62.2163 63.264 63.123 63.264C64.0297 63.264 64.8403 63.456 65.555 63.84C66.2697 64.2133 66.8297 64.736 67.235 65.408C67.6403 66.08 67.843 66.8427 67.843 67.696C67.843 68.5493 67.6403 69.312 67.235 69.984C66.8297 70.656 66.2697 71.184 65.555 71.568C64.8403 71.9413 64.0297 72.128 63.123 72.128ZM63.123 70.08C63.763 70.08 64.2857 69.8667 64.691 69.44C65.107 69.0027 65.315 68.4213 65.315 67.696C65.315 66.9707 65.107 66.3947 64.691 65.968C64.2857 65.5307 63.763 65.312 63.123 65.312C62.483 65.312 61.955 65.5307 61.539 65.968C61.123 66.3947 60.915 66.9707 60.915 67.696C60.915 68.4213 61.123 69.0027 61.539 69.44C61.955 69.8667 62.483 70.08 63.123 70.08ZM74.7434 63.264C75.81 63.264 76.6687 63.584 77.3194 64.224C77.9807 64.864 78.3114 65.8133 78.3114 67.072V72H75.8154V67.456C75.8154 66.7733 75.666 66.2667 75.3674 65.936C75.0687 65.5947 74.6367 65.424 74.0714 65.424C73.442 65.424 72.9407 65.6213 72.5674 66.016C72.194 66.4 72.0074 66.976 72.0074 67.744V72H69.5114V63.392H71.8954V64.4C72.226 64.0373 72.6367 63.76 73.1274 63.568C73.618 63.3653 74.1567 63.264 74.7434 63.264ZM89.0996 67.728C89.0996 67.76 89.0836 67.984 89.0516 68.4H82.5396C82.657 68.9333 82.9343 69.3547 83.3716 69.664C83.809 69.9733 84.353 70.128 85.0036 70.128C85.4516 70.128 85.8463 70.064 86.1876 69.936C86.5396 69.7973 86.865 69.584 87.1636 69.296L88.4916 70.736C87.681 71.664 86.497 72.128 84.9396 72.128C83.969 72.128 83.1103 71.9413 82.3636 71.568C81.617 71.184 81.041 70.656 80.6356 69.984C80.2303 69.312 80.0276 68.5493 80.0276 67.696C80.0276 66.8533 80.225 66.096 80.6196 65.424C81.025 64.7413 81.5743 64.2133 82.2676 63.84C82.9716 63.456 83.7556 63.264 84.6196 63.264C85.4623 63.264 86.225 63.4453 86.9076 63.808C87.5903 64.1707 88.1236 64.6933 88.5076 65.376C88.9023 66.048 89.0996 66.832 89.0996 67.728ZM84.6356 65.152C84.0703 65.152 83.5956 65.312 83.2116 65.632C82.8276 65.952 82.593 66.3893 82.5076 66.944H86.7476C86.6623 66.4 86.4276 65.968 86.0436 65.648C85.6596 65.3173 85.1903 65.152 84.6356 65.152ZM91.7054 66.384C91.268 66.384 90.9 66.2347 90.6014 65.936C90.3027 65.6373 90.1534 65.264 90.1534 64.816C90.1534 64.3573 90.3027 63.9893 90.6014 63.712C90.9 63.424 91.268 63.28 91.7054 63.28C92.1427 63.28 92.5107 63.424 92.8094 63.712C93.108 63.9893 93.2574 64.3573 93.2574 64.816C93.2574 65.264 93.108 65.6373 92.8094 65.936C92.5107 66.2347 92.1427 66.384 91.7054 66.384ZM91.7054 72.128C91.268 72.128 90.9 71.9787 90.6014 71.68C90.3027 71.3813 90.1534 71.008 90.1534 70.56C90.1534 70.1013 90.3027 69.7333 90.6014 69.456C90.9 69.168 91.268 69.024 91.7054 69.024C92.1427 69.024 92.5107 69.168 92.8094 69.456C93.108 69.7333 93.2574 70.1013 93.2574 70.56C93.2574 71.008 93.108 71.3813 92.8094 71.68C92.5107 71.9787 92.1427 72.128 91.7054 72.128ZM107.064 60.8V61.616L102.376 72H101.128L105.736 61.824H99.9761V63.92H98.8401V60.8H107.064ZM116.486 60.8V61.616L111.798 72H110.55L115.158 61.824H109.398V63.92H108.262V60.8H116.486ZM121.671 65.6C122.845 65.664 123.735 65.984 124.343 66.56C124.962 67.1253 125.271 67.8667 125.271 68.784C125.271 69.424 125.117 69.9947 124.807 70.496C124.498 70.9867 124.039 71.376 123.431 71.664C122.823 71.952 122.082 72.096 121.207 72.096C120.397 72.096 119.629 71.968 118.903 71.712C118.189 71.4453 117.613 71.0933 117.175 70.656L117.735 69.744C118.109 70.128 118.605 70.4427 119.223 70.688C119.842 70.9227 120.503 71.04 121.207 71.04C122.125 71.04 122.834 70.8427 123.335 70.448C123.837 70.0427 124.087 69.488 124.087 68.784C124.087 68.0907 123.837 67.5467 123.335 67.152C122.834 66.7573 122.077 66.56 121.063 66.56H120.263V65.712L123.367 61.824H117.639V60.8H124.839V61.616L121.671 65.6ZM127.023 67.168H131.215V68.16H127.023V67.168ZM142.649 69.056H140.409V72H139.257V69.056H132.937V68.224L138.873 60.8H140.153L134.425 68.032H139.289V65.44H140.409V68.032H142.649V69.056ZM147.07 60.704C148.553 60.704 149.689 61.1947 150.478 62.176C151.267 63.1467 151.662 64.5227 151.662 66.304C151.662 67.552 151.449 68.608 151.022 69.472C150.595 70.336 149.998 70.992 149.23 71.44C148.462 71.8773 147.566 72.096 146.542 72.096C145.433 72.096 144.547 71.8933 143.886 71.488L144.35 70.56C144.883 70.912 145.609 71.088 146.526 71.088C147.763 71.088 148.734 70.6987 149.438 69.92C150.142 69.1307 150.494 67.9893 150.494 66.496C150.494 66.2187 150.478 65.9147 150.446 65.584C150.169 66.192 149.726 66.6667 149.118 67.008C148.51 67.3387 147.811 67.504 147.022 67.504C146.286 67.504 145.63 67.3653 145.054 67.088C144.489 66.8107 144.046 66.4213 143.726 65.92C143.406 65.408 143.246 64.816 143.246 64.144C143.246 63.4613 143.411 62.8587 143.742 62.336C144.073 61.8133 144.526 61.4133 145.102 61.136C145.689 60.848 146.345 60.704 147.07 60.704ZM147.198 66.528C147.763 66.528 148.259 66.4213 148.686 66.208C149.123 65.9947 149.465 65.7013 149.71 65.328C149.955 64.9547 150.078 64.5387 150.078 64.08C150.078 63.6533 149.961 63.2587 149.726 62.896C149.502 62.5333 149.166 62.24 148.718 62.016C148.27 61.792 147.737 61.68 147.118 61.68C146.307 61.68 145.646 61.904 145.134 62.352C144.633 62.7893 144.382 63.376 144.382 64.112C144.382 64.848 144.633 65.4347 145.134 65.872C145.646 66.3093 146.334 66.528 147.198 66.528ZM157.972 65.296C158.708 65.296 159.359 65.4347 159.924 65.712C160.5 65.9893 160.948 66.384 161.268 66.896C161.588 67.3973 161.748 67.984 161.748 68.656C161.748 69.3387 161.583 69.9413 161.252 70.464C160.921 70.9867 160.463 71.392 159.876 71.68C159.3 71.9573 158.649 72.096 157.924 72.096C156.441 72.096 155.305 71.6107 154.516 70.64C153.727 69.6587 153.332 68.2773 153.332 66.496C153.332 65.248 153.545 64.192 153.972 63.328C154.399 62.464 154.996 61.8133 155.764 61.376C156.532 60.928 157.428 60.704 158.452 60.704C159.561 60.704 160.447 60.9067 161.108 61.312L160.644 62.24C160.111 61.888 159.385 61.712 158.468 61.712C157.231 61.712 156.26 62.1067 155.556 62.896C154.852 63.6747 154.5 64.8107 154.5 66.304C154.5 66.5707 154.516 66.8747 154.548 67.216C154.825 66.608 155.268 66.1387 155.876 65.808C156.484 65.4667 157.183 65.296 157.972 65.296ZM157.876 71.12C158.687 71.12 159.343 70.9013 159.844 70.464C160.356 70.016 160.612 69.424 160.612 68.688C160.612 67.952 160.356 67.3653 159.844 66.928C159.343 66.4907 158.66 66.272 157.796 66.272C157.231 66.272 156.729 66.3787 156.292 66.592C155.865 66.8053 155.529 67.0987 155.284 67.472C155.039 67.8453 154.916 68.2613 154.916 68.72C154.916 69.1467 155.028 69.5413 155.252 69.904C155.487 70.2667 155.828 70.56 156.276 70.784C156.724 71.008 157.257 71.12 157.876 71.12ZM163.288 67.168H167.48V68.16H163.288V67.168ZM178.915 69.056H176.675V72H175.523V69.056H169.203V68.224L175.139 60.8H176.419L170.691 68.032H175.555V65.44H176.675V68.032H178.915V69.056ZM187.558 70.976V72H179.702V71.184L184.358 66.624C184.945 66.048 185.339 65.552 185.542 65.136C185.755 64.7093 185.862 64.2827 185.862 63.856C185.862 63.1947 185.633 62.6827 185.174 62.32C184.726 61.9467 184.081 61.76 183.238 61.76C181.926 61.76 180.907 62.176 180.182 63.008L179.366 62.304C179.803 61.792 180.358 61.3973 181.03 61.12C181.713 60.8427 182.481 60.704 183.334 60.704C184.475 60.704 185.377 60.976 186.038 61.52C186.71 62.0533 187.046 62.7893 187.046 63.728C187.046 64.304 186.918 64.8587 186.662 65.392C186.406 65.9253 185.921 66.5387 185.206 67.232L181.398 70.976H187.558ZM196.652 70.976V72H188.796V71.184L193.452 66.624C194.039 66.048 194.433 65.552 194.636 65.136C194.849 64.7093 194.956 64.2827 194.956 63.856C194.956 63.1947 194.727 62.6827 194.268 62.32C193.82 61.9467 193.175 61.76 192.332 61.76C191.02 61.76 190.001 62.176 189.276 63.008L188.46 62.304C188.897 61.792 189.452 61.3973 190.124 61.12C190.807 60.8427 191.575 60.704 192.428 60.704C193.569 60.704 194.471 60.976 195.132 61.52C195.804 62.0533 196.14 62.7893 196.14 63.728C196.14 64.304 196.012 64.8587 195.756 65.392C195.5 65.9253 195.015 66.5387 194.3 67.232L190.492 70.976H196.652ZM205.746 70.976V72H197.89V71.184L202.546 66.624C203.132 66.048 203.527 65.552 203.73 65.136C203.943 64.7093 204.05 64.2827 204.05 63.856C204.05 63.1947 203.82 62.6827 203.362 62.32C202.914 61.9467 202.268 61.76 201.426 61.76C200.114 61.76 199.095 62.176 198.37 63.008L197.554 62.304C197.991 61.792 198.546 61.3973 199.218 61.12C199.9 60.8427 200.668 60.704 201.522 60.704C202.663 60.704 203.564 60.976 204.226 61.52C204.898 62.0533 205.234 62.7893 205.234 63.728C205.234 64.304 205.106 64.8587 204.85 65.392C204.594 65.9253 204.108 66.5387 203.394 67.232L199.586 70.976H205.746Z" fill="#333333"/>
<g filter="url(#filter0_d_278_307)">
<path d="M18 10C18 9.08075 17.8189 8.1705 17.4672 7.32122C17.1154 6.47194 16.5998 5.70026 15.9497 5.05025C15.2997 4.40024 14.5281 3.88463 13.6788 3.53284C12.8295 3.18106 11.9193 3 11 3C10.0807 3 9.17049 3.18106 8.32122 3.53284C7.47194 3.88463 6.70026 4.40024 6.05025 5.05025C5.40024 5.70026 4.88463 6.47194 4.53284 7.32122C4.18106 8.1705 4 9.08075 4 10C4 11.387 4.41 12.677 5.105 13.765H5.097C7.457 17.46 11 23 11 23L16.903 13.765H16.896C17.6164 12.6414 17.9995 11.3347 18 10ZM11 13C10.2044 13 9.44129 12.6839 8.87868 12.1213C8.31607 11.5587 8 10.7956 8 10C8 9.20435 8.31607 8.44129 8.87868 7.87868C9.44129 7.31607 10.2044 7 11 7C11.7956 7 12.5587 7.31607 13.1213 7.87868C13.6839 8.44129 14 9.20435 14 10C14 10.7956 13.6839 11.5587 13.1213 12.1213C12.5587 12.6839 11.7956 13 11 13Z" fill="#DD71C6"/>
</g>
<path d="M14.3396 70.2139L16.0624 68.491C16.2945 68.2618 16.5881 68.1049 16.9076 68.0394C17.2271 67.9739 17.5587 68.0025 17.8623 68.1218L19.962 68.9602C20.2688 69.0847 20.5318 69.2972 20.7179 69.5709C20.9041 69.8447 21.005 70.1674 21.0081 70.4985V74.3442C21.0063 74.5694 20.9589 74.7919 20.8689 74.9983C20.7789 75.2047 20.648 75.3908 20.4841 75.5453C20.3203 75.6998 20.1269 75.8195 19.9155 75.8973C19.7042 75.9751 19.4793 76.0093 19.2544 75.9979C4.54063 75.0826 1.57172 62.6224 1.01024 57.8537C0.984179 57.6195 1.00799 57.3825 1.08012 57.1581C1.15224 56.9338 1.27105 56.7273 1.42871 56.5522C1.58637 56.3771 1.77933 56.2374 1.99487 56.1422C2.21042 56.047 2.44367 55.9986 2.67929 56H6.39427C6.72578 56.001 7.04942 56.1011 7.32355 56.2876C7.59769 56.474 7.80978 56.7381 7.93257 57.0461L8.77094 59.1458C8.89419 59.4482 8.92564 59.7801 8.86135 60.1002C8.79706 60.4203 8.63987 60.7144 8.40944 60.9456L6.68655 62.6685C6.68655 62.6685 7.67875 69.3832 14.3396 70.2139Z" fill="#DD71C6"/>
<defs>
<filter id="filter0_d_278_307" x="0" y="3" width="22" height="28" filterUnits="userSpaceOnUse" color-interpolation-filters="sRGB">
<feFlood flood-opacity="0" result="BackgroundImageFix"/>
<feColorMatrix in="SourceAlpha" type="matrix" values="0 0 0 0 0 0 0 0 0 0 0 0 0 0 0 0 0 0 127 0" result="hardAlpha"/>
<feOffset dy="4"/>
<feGaussianBlur stdDeviation="2"/>
<feComposite in2="hardAlpha" operator="out"/>
<feColorMatrix type="matrix" values="0 0 0 0 0 0 0 0 0 0 0 0 0 0 0 0 0 0 0.25 0"/>
<feBlend mode="normal" in2="BackgroundImageFix" result="effect1_dropShadow_278_307"/>
<feBlend mode="normal" in="SourceGraphic" in2="effect1_dropShadow_278_307" result="shape"/>
</filter>
</defs>
</svg>
