<svg width="138" height="63" viewBox="0 0 138 63" fill="none" xmlns="http://www.w3.org/2000/svg">
<circle cx="117.258" cy="20.7423" r="20.7423" fill="#A4E7ED"/>
<circle cx="26.6691" cy="20.7423" r="20.7423" fill="#73C3F4"/>
<circle cx="21.8717" cy="48.6813" r="13.4049" fill="#DD71C6"/>
<circle cx="8.32515" cy="38.5214" r="8.32515" fill="#FFD900"/>
<path d="M23.8269 38.5856C23.9307 38.2872 24.0015 37.9784 24.0381 37.6646C24.0381 37.6646 25.0678 38.6617 25.5742 40.5596C26.0805 42.4576 26.6614 43.1145 27.5482 43.947C28.435 44.7795 31.1204 46.4973 33.8943 49.6222C36.6107 52.6881 40.1612 56.8551 40.2901 57.0058C40.2031 56.8272 37.3609 51.0448 35.8016 48.959C34.2189 46.8405 33.082 45.0591 31.5693 44.3462C30.0565 43.6333 28.9196 41.8518 28.9289 39.0515C28.9383 36.2512 27.4581 35.0724 26.5557 34.5474C25.6534 34.0225 22.85 31.5219 24.3254 27.7136C25.8009 23.9054 33.2793 21.265 35.185 20.7572C37.0907 20.2493 41.3633 18.7986 41.3633 18.7986C41.3633 18.7986 36.9944 19.0006 34.2935 19.9324C31.636 20.8441 28.6835 21.585 28.5919 21.6083C28.6385 21.5586 29.5098 20.5708 29.2737 19.5892C29.1806 19.1361 28.9224 18.7339 28.5493 18.4606C28.1761 18.1874 27.7147 18.0626 27.2547 18.1106C26.5433 18.21 26.3414 18.3374 26.3103 18.3607C26.3989 18.2644 27.8635 16.7811 28.7721 16.1863C29.6807 15.5914 30.7275 14.5757 31.0754 13.9746C31.0754 13.9746 27.5342 15.9378 26.082 16.7827C24.6299 17.6276 22.996 18.9307 21.3046 21.1625C19.6132 23.3944 19.3166 25.7085 19.6536 27.9078C19.9906 30.107 20.9878 31.567 21.4055 32.3715C21.8233 33.176 22.2039 34.5971 21.6929 35.3442C21.1819 36.0913 19.3212 38.4691 19.2001 40.4835C19.0789 42.4979 19.9223 43.9517 20.9334 45.2563C21.9445 46.5609 24.0397 50.4251 25.5229 54.249C27.0062 58.0728 27.8945 58.7531 27.8945 58.7531C27.8945 58.7531 26.6691 50.742 25.7202 48.5024C24.7712 46.2627 23.5209 43.7001 23.2351 43.377C22.9494 43.054 22.0703 42.0615 22.5999 41.0038C23.1295 39.9461 23.6343 39.1913 23.8269 38.5856ZM23.1885 23.4549C23.1885 23.4549 23.1357 21.7465 24.1204 20.8659C24.1204 20.8659 24.3456 22.2792 25.731 22.52C25.7341 22.52 24.1282 23.3493 23.1885 23.4549Z" fill="#4D85B0"/>
<path d="M39.3152 33.3559C39.118 31.576 38.9114 29.8443 38.694 28.2104C38.4765 26.5765 38.2187 25.028 37.9174 23.6379L37.877 23.4531H35.9356L35.8657 23.5525C35.3842 24.2375 34.895 24.9503 34.412 25.6757C33.929 26.401 33.4413 27.1636 32.9505 27.9557C32.4597 28.7478 31.9518 29.588 31.4346 30.4624C30.9174 31.3368 30.3707 32.2765 29.8023 33.2581L29.5957 33.6106H32.0326L32.0978 33.4864C32.3137 33.0826 32.528 32.6881 32.7377 32.3122L33.2922 31.3166H36.8954C36.9249 31.6133 36.9545 31.9162 36.9824 32.2283C37.0181 32.6135 37.0476 33.0049 37.0694 33.3901L37.0818 33.6106H39.3385L39.3152 33.3559ZM34.3297 29.4544C34.7381 28.7493 35.1311 28.097 35.5023 27.513C35.8015 27.0388 36.0831 26.5967 36.3472 26.1866C36.4155 26.693 36.4792 27.1915 36.5351 27.6777C36.6066 28.2772 36.6656 28.8736 36.7122 29.4544H34.3297Z" fill="#FFD900"/>
<path d="M51.7225 27.2965C52.0147 26.8425 52.1704 26.3143 52.1714 25.7745C52.1894 25.3321 52.0629 24.896 51.8111 24.5319C51.5791 24.2171 51.275 23.9625 50.9242 23.7895C50.5556 23.6094 50.16 23.4909 49.7532 23.4385C49.3447 23.3805 48.9326 23.3515 48.52 23.3516C48.0447 23.3516 47.5648 23.3702 47.0942 23.4075C46.6367 23.4436 46.1821 23.5105 45.7336 23.6078L45.5923 23.6404L43.2471 33.3972L43.4769 33.4485C43.9511 33.553 44.4323 33.6225 44.9167 33.6566C45.4479 33.7001 45.9604 33.7218 46.4388 33.7218C48.0913 33.7218 49.3788 33.4112 50.2672 32.79C51.1836 32.1501 51.648 31.2368 51.648 30.0673C51.6558 29.6238 51.5237 29.1891 51.2706 28.8248C51.1036 28.5915 50.8925 28.3931 50.6493 28.2408C51.0828 28.0244 51.4527 27.699 51.7225 27.2965ZM48.756 27.3354C48.4959 27.3887 48.231 27.4153 47.9655 27.4146H46.914L47.4266 25.2992C47.526 25.2899 47.6409 25.279 47.7714 25.2712C47.9795 25.2573 48.1938 25.2542 48.4004 25.251C48.808 25.2325 49.2145 25.3058 49.5901 25.4654C49.7454 25.5399 49.9426 25.6906 49.9426 26.1379C49.9501 26.3339 49.8999 26.5278 49.7982 26.6955C49.6916 26.8568 49.5512 26.993 49.3866 27.0946C49.1925 27.2119 48.9789 27.2934 48.756 27.3354ZM49.163 31.0194C49.0075 31.2279 48.804 31.3957 48.5697 31.5086C48.3034 31.6334 48.0195 31.7162 47.7279 31.754C47.4191 31.7969 47.1077 31.8192 46.796 31.8208C46.5413 31.8208 46.3052 31.8208 46.0971 31.8006L45.8532 31.782L46.4745 29.2379H47.8847C48.4485 29.2379 48.8492 29.3342 49.076 29.5253C49.1794 29.6092 49.2621 29.7156 49.3179 29.8366C49.3736 29.9575 49.4008 30.0895 49.3975 30.2226C49.4085 30.5067 49.3262 30.7866 49.163 31.0194Z" fill="#FFD900"/>
<path d="M58.7561 26.2635C58.3227 25.8597 57.7139 25.6547 56.9482 25.6547C56.2919 25.6457 55.6429 25.7931 55.055 26.0849C54.5032 26.364 54.0138 26.7524 53.6168 27.2265C53.2173 27.7086 52.9094 28.2597 52.7082 28.8526C52.5012 29.4607 52.3963 30.0989 52.3975 30.7412C52.3949 31.1381 52.4558 31.533 52.5777 31.9107C52.6971 32.289 52.9009 32.6351 53.1738 32.923C53.4466 33.2109 53.7813 33.433 54.1526 33.5726C54.6093 33.7426 55.0942 33.8243 55.5815 33.8133C56.07 33.8209 56.5577 33.7687 57.0336 33.658C57.3735 33.5812 57.7057 33.4736 58.0261 33.3365L58.1814 33.2666L57.9935 31.4199L57.7046 31.538C57.1308 31.7805 56.515 31.9076 55.8921 31.9123C54.6853 31.9123 54.5222 31.3438 54.516 30.9012C55.0472 30.8779 55.5784 30.8344 56.0971 30.7676C56.6591 30.7016 57.2085 30.5541 57.7279 30.3296C58.1986 30.1245 58.6122 29.8078 58.9331 29.4071C59.2701 28.9532 59.4402 28.3969 59.4146 27.8322C59.4234 27.5388 59.3692 27.247 59.2556 26.9764C59.142 26.7058 58.9717 26.4627 58.7561 26.2635ZM56.6951 27.506C56.9575 27.506 57.1408 27.5573 57.2293 27.652C57.319 27.7458 57.3696 27.8702 57.3707 27.9999C57.3707 28.3758 57.1719 28.6414 56.7494 28.8371C56.327 29.0328 55.6343 29.1586 54.7102 29.2083C54.7656 29.0341 54.8374 28.8657 54.9245 28.705C55.049 28.4714 55.2058 28.2565 55.3904 28.0667C55.5639 27.8927 55.7682 27.7526 55.993 27.6536C56.2141 27.5556 56.4533 27.5053 56.6951 27.506Z" fill="#FFD900"/>
<path d="M61.9599 30.907C61.9439 31.0191 61.9356 31.1323 61.935 31.2456C61.9345 31.3395 61.9444 31.4333 61.9645 31.5251C61.9771 31.5904 62.0072 31.651 62.0515 31.7006C62.1111 31.7614 62.1847 31.8067 62.2658 31.8326C62.4164 31.8799 62.574 31.901 62.7318 31.8948C62.9558 31.8955 63.1789 31.8657 63.395 31.8062C63.5951 31.7516 63.7917 31.6847 63.9836 31.6059L64.2756 31.4832L64.4464 33.3236L64.2911 33.3904C64.0171 33.5049 63.7346 33.5978 63.4462 33.6684C63.0516 33.7628 62.6467 33.8077 62.241 33.802C61.379 33.802 60.7437 33.6017 60.3555 33.2072C59.9672 32.8127 59.7715 32.2753 59.7715 31.609C59.772 31.3668 59.7891 31.125 59.8227 30.8852C59.861 30.6213 59.9128 30.3595 59.9781 30.1009L61.4427 23.9349L63.7056 23.5762L63.1573 25.8344H65.5523L65.1034 27.6982H62.7069L62.0546 30.4193C62.0064 30.6119 61.9769 30.7765 61.9599 30.907Z" fill="#FFD900"/>
<path d="M67.5681 30.9089C67.5528 31.0217 67.5445 31.1353 67.5432 31.2491C67.5436 31.3425 67.5535 31.4356 67.5727 31.5271C67.586 31.5921 67.616 31.6526 67.6597 31.7026C67.7203 31.763 67.7942 31.8082 67.8756 31.8346C68.0262 31.8819 68.1838 31.9029 68.3415 31.8967C68.5661 31.8976 68.7898 31.8678 69.0063 31.8082C69.2059 31.7535 69.402 31.6866 69.5934 31.6078L69.8869 31.4851L70.0578 33.3256L69.9024 33.3939C69.6276 33.5071 69.3446 33.5995 69.056 33.6704C68.6619 33.7648 68.2575 33.8097 67.8523 33.804C66.9888 33.804 66.3551 33.6036 65.9668 33.2091C65.5785 32.8146 65.3813 32.2772 65.3828 31.6109C65.3833 31.3688 65.4004 31.127 65.4341 30.8872C65.4723 30.6232 65.5242 30.3614 65.5894 30.1028L67.054 23.9369L69.3154 23.5781L68.7671 25.8348H71.1605L70.7132 27.6986H68.3151L67.6582 30.415C67.6162 30.6138 67.5852 30.7785 67.5681 30.9089Z" fill="#FFD900"/>
<path d="M77.2904 26.268C77.0676 26.0619 76.8026 25.9066 76.5139 25.8129C76.1812 25.7061 75.8335 25.6537 75.4841 25.6576C74.8268 25.6486 74.1768 25.796 73.5878 26.0878C73.0355 26.3676 72.5461 26.7571 72.1496 27.2325C71.7495 27.7145 71.4411 28.2656 71.2394 28.8586C71.0319 29.466 70.9269 30.1038 70.9288 30.7457C70.926 31.1432 70.9869 31.5385 71.109 31.9168C71.229 32.2947 71.433 32.6405 71.7058 32.9283C71.9785 33.2161 72.3129 33.4385 72.6838 33.5786C73.1406 33.7486 73.6255 33.8303 74.1127 33.8193C74.6013 33.8262 75.0889 33.774 75.5649 33.664C75.9045 33.586 76.2366 33.4785 76.5574 33.3425L76.7127 33.2726L76.5185 31.426L76.2296 31.5456C75.6561 31.7868 75.0409 31.9134 74.4187 31.9183C73.2119 31.9183 73.0488 31.3499 73.0426 30.9072C73.5753 30.8855 74.105 30.8404 74.6222 30.7736C75.184 30.7087 75.7334 30.5622 76.2529 30.3388C76.7265 30.1348 77.1433 29.8187 77.4675 29.4178C77.8047 28.965 77.9758 28.41 77.9521 27.846C77.9615 27.5509 77.9074 27.2572 77.7932 26.9849C77.679 26.7126 77.5075 26.4681 77.2904 26.268ZM75.2294 27.5105C75.4904 27.5105 75.6752 27.5618 75.7622 27.6658C75.8532 27.7588 75.9045 27.8836 75.905 28.0137C75.905 28.388 75.7062 28.6552 75.2838 28.8509C74.8613 29.0466 74.1686 29.1646 73.2368 29.2127C73.2918 29.039 73.3636 28.871 73.4511 28.7111C73.575 28.4766 73.7319 28.2611 73.917 28.0712C74.0903 27.8977 74.2941 27.7577 74.5181 27.6581C74.742 27.5588 74.9845 27.5085 75.2294 27.5105Z" fill="#FFD900"/>
<path d="M84.3329 26.0355L83.6961 27.8713L83.4771 27.7952C83.2925 27.731 83.1029 27.6822 82.9103 27.6492C82.6724 27.6124 82.4318 27.5953 82.1911 27.5979C82.0327 27.5987 81.8745 27.6096 81.7174 27.6305C81.6219 27.6422 81.527 27.6588 81.4332 27.6802L80.0152 33.6256H77.8408L79.6207 26.2327L79.7434 26.1908C80.1694 26.0508 80.6029 25.9346 81.0418 25.8429C81.5444 25.7375 82.0566 25.6854 82.5701 25.6876C82.6928 25.6876 82.8264 25.6953 82.9739 25.7093C83.1215 25.7233 83.2566 25.7404 83.3948 25.759C83.5331 25.7776 83.6744 25.8056 83.7955 25.8336C83.9121 25.8603 84.026 25.8977 84.1357 25.9454L84.3329 26.0355Z" fill="#FFD900"/>
<path d="M50.7168 36.3726L50.5848 36.6941C49.8501 38.4896 49.0969 40.2104 48.3451 41.8195C47.5934 43.4285 46.792 44.9708 45.9471 46.4245L45.8803 46.541H43.8317L43.8022 46.3422C43.7277 45.839 43.6562 45.3436 43.5863 44.859C43.5164 44.3744 43.4512 43.8727 43.3922 43.3773C43.3332 42.8818 43.2757 42.3662 43.2245 41.8475C43.198 41.5757 43.1701 41.2914 43.1452 40.9994C42.6871 41.8366 42.232 42.6535 41.7878 43.4363C41.2194 44.4396 40.6074 45.4554 39.9706 46.4354L39.9023 46.541H37.8475L37.8289 46.3298C37.7559 45.5206 37.7031 44.7021 37.6735 43.8976C37.644 43.0931 37.627 42.2652 37.627 41.4265C37.627 39.8983 37.6798 38.2752 37.7823 36.5994L37.7962 36.3804H40.0265L40.011 36.6289C39.9551 37.5251 39.907 38.4212 39.8712 39.2894C39.8355 40.1576 39.8153 41.06 39.8153 41.9577V42.9719C39.8153 43.0496 39.8153 43.1272 39.8153 43.2064C39.9706 42.9362 40.1415 42.6597 40.3046 42.3786C40.6152 41.8552 40.9165 41.3194 41.2147 40.782C41.5129 40.2446 41.8049 39.6948 42.0891 39.1636C42.3733 38.6325 42.642 38.1059 42.8936 37.6105L42.9589 37.4831H44.8615L44.8723 37.7037C44.9003 38.2069 44.936 38.7381 44.9764 39.2786C45.0168 39.8191 45.068 40.3751 45.1224 40.9171C45.1767 41.4592 45.2342 41.995 45.2901 42.5169C45.315 42.756 45.3414 42.9828 45.3662 43.2142C45.5215 42.9129 45.6769 42.593 45.8322 42.2683C46.1117 41.6766 46.3944 41.06 46.6709 40.4341C46.9473 39.8082 47.2284 39.145 47.4956 38.488C47.7627 37.831 48.0252 37.1725 48.2721 36.5264L48.3296 36.3711L50.7168 36.3726Z" fill="#FFD900"/>
<path d="M55.8695 39.1775C55.4347 38.7737 54.8258 38.5687 54.0601 38.5687C53.4027 38.5602 52.7527 38.7082 52.1638 39.0005C51.612 39.2797 51.1231 39.6687 50.7271 40.1436C50.327 40.6253 50.019 41.1765 49.8185 41.7697C49.611 42.3771 49.506 43.0149 49.5079 43.6568C49.5051 44.0542 49.566 44.4496 49.6881 44.8278C49.8076 45.2057 50.011 45.5517 50.2832 45.8397C50.5554 46.1278 50.8893 46.3505 51.2598 46.4912C51.7169 46.6599 52.2016 46.7411 52.6887 46.7304C53.1783 46.7372 53.6669 46.6851 54.144 46.5751C54.4839 46.4974 54.816 46.3893 55.1365 46.2521L55.2918 46.1837L55.1023 44.3355L54.8134 44.4551C54.2397 44.6976 53.6238 44.8248 53.0009 44.8294C51.7941 44.8294 51.631 44.2609 51.6248 43.8183C52.156 43.795 52.6872 43.75 53.2044 43.6847C53.7667 43.6178 54.3164 43.4703 54.8367 43.2467C55.3101 43.0426 55.7265 42.7259 56.0497 42.3242C56.3877 41.869 56.5578 41.311 56.5312 40.7446C56.5393 40.4513 56.4844 40.1597 56.3703 39.8893C56.2562 39.619 56.0854 39.3763 55.8695 39.1775ZM53.8085 40.42C54.0695 40.42 54.2543 40.4713 54.3428 40.5754C54.4329 40.6688 54.4835 40.7934 54.4841 40.9233C54.4841 41.2976 54.2853 41.5647 53.8629 41.7604C53.4404 41.9561 52.7477 42.0819 51.8252 42.1316C51.8801 41.9575 51.9513 41.789 52.038 41.6284C52.162 41.3945 52.3189 41.1795 52.5039 40.99C52.6777 40.8161 52.882 40.6755 53.1065 40.5754C53.327 40.4747 53.5662 40.4218 53.8085 40.42Z" fill="#FFD900"/>
<path d="M61.0775 36.7067C61.0826 36.8982 61.046 37.0886 60.9701 37.2646C60.8942 37.4406 60.7808 37.5978 60.6379 37.7255C60.3721 37.9752 60.021 38.1141 59.6563 38.1138C59.3647 38.1193 59.0805 38.022 58.8534 37.8389C58.7295 37.7356 58.6317 37.6045 58.5677 37.4564C58.5038 37.3083 58.4755 37.1473 58.4853 36.9862C58.4802 36.7949 58.5159 36.6046 58.5901 36.4281C58.6643 36.2517 58.7752 36.093 58.9155 35.9627C59.1762 35.7058 59.5279 35.5623 59.894 35.5636C60.189 35.5599 60.4759 35.66 60.7047 35.8462C60.8295 35.9508 60.9281 36.083 60.9928 36.2324C61.0575 36.3818 61.0865 36.5442 61.0775 36.7067Z" fill="#FFD900"/>
<path d="M60.4561 38.752L58.5814 46.5332H56.4102L58.2848 38.752H60.4561Z" fill="#FFD900"/>
<path d="M68.1597 39.1155C67.7948 38.9214 67.4025 38.7837 66.9964 38.7071C66.6062 38.6282 66.2094 38.5871 65.8113 38.5844C65.104 38.5761 64.4013 38.6999 63.7394 38.9494C63.1399 39.1771 62.5926 39.5237 62.1304 39.9682C61.6812 40.4092 61.3275 40.9378 61.0913 41.5214C60.8425 42.1408 60.7175 42.803 60.7233 43.4705C60.7233 44.2626 60.9438 44.9103 61.3771 45.3949C61.8105 45.8795 62.4907 46.1373 63.3776 46.1373C63.68 46.1384 63.9809 46.0949 64.2706 46.0084C64.3638 45.9804 64.4539 45.9509 64.5393 45.9198C64.4367 46.2761 64.2398 46.5981 63.9693 46.8517C63.6587 47.1282 63.1927 47.268 62.5715 47.268C62.2084 47.273 61.8463 47.2286 61.4952 47.1359C61.2087 47.0592 60.9336 46.9454 60.6767 46.7974L60.4499 46.6622L59.6562 48.4716L59.8473 48.5741C60.1933 48.7528 60.5579 48.8929 60.9345 48.9919C61.3911 49.1088 61.861 49.1652 62.3323 49.1597C62.9441 49.1719 63.5544 49.0934 64.1433 48.9267C64.6184 48.7869 65.059 48.5493 65.437 48.2293C65.796 47.9125 66.0848 47.5242 66.285 47.0893C66.5074 46.6062 66.6792 46.1013 66.7976 45.5828L68.3212 39.1979L68.1597 39.1155ZM63.7938 44.3046C63.449 44.3046 63.2176 44.2207 63.0856 44.0468C62.926 43.8031 62.8497 43.5143 62.8681 43.2236C62.8655 42.8579 62.9313 42.4949 63.0623 42.1535C63.1863 41.8319 63.3702 41.5367 63.6043 41.2837C63.8466 41.0235 64.141 40.8171 64.4682 40.6779C64.7954 40.5388 65.1483 40.47 65.5038 40.4761C65.6191 40.4762 65.7343 40.484 65.8486 40.4994L65.0254 43.9163C64.8607 44.0298 64.6808 44.1197 64.4912 44.1834C64.2672 44.2628 64.0314 44.3037 63.7938 44.3046Z" fill="#FFD900"/>
<path d="M75.7221 41.1821C75.7186 41.6307 75.6602 42.0772 75.5481 42.5115L74.5821 46.5342H72.4077L73.3566 42.5814C73.4017 42.3733 73.4483 42.1543 73.4949 41.9307C73.5364 41.7398 73.5583 41.5451 73.5601 41.3498C73.5693 41.1222 73.4996 40.8983 73.3629 40.7161C73.2184 40.5297 72.8767 40.4909 72.6158 40.4909C72.4414 40.4913 72.2674 40.5064 72.0955 40.536C71.9697 40.5593 71.8532 40.5841 71.746 40.6121L70.3482 46.5342H68.1738L70.8142 35.5209L73.074 35.1621L72.2197 38.7343L72.4698 38.6846C72.698 38.6402 72.93 38.6179 73.1625 38.6178C73.5511 38.6093 73.9379 38.6741 74.3025 38.8089C74.6099 38.926 74.8869 39.1107 75.1132 39.3494C75.3301 39.587 75.4895 39.8713 75.5792 40.1803C75.6765 40.5052 75.7247 40.8429 75.7221 41.1821Z" fill="#FFD900"/>
<path d="M78.6931 44.207L78.6729 44.4571C78.6104 45.2489 78.388 46.0197 78.0191 46.7231C77.6555 47.43 77.2142 48.0942 76.7036 48.7034L76.6026 48.8214L74.9609 48.3073L75.1256 48.0495C75.4838 47.4868 75.7811 46.8875 76.0124 46.2618C76.2376 45.6715 76.3788 45.0525 76.4318 44.4229L76.4488 44.207H78.6931Z" fill="#FFD900"/>
<path d="M86.3048 36.373L83.8711 46.5337H81.6299L84.0636 36.373H86.3048Z" fill="#FFD900"/>
<path d="M93.1174 41.1538C93.1163 41.3733 93.0992 41.5923 93.0661 41.8093C93.0335 42.0329 92.9931 42.2643 92.945 42.5004L91.9773 46.5386H89.803L90.7348 42.5874C90.7799 42.3855 90.8265 42.1758 90.8731 41.9661C90.915 41.7765 90.9414 41.5838 90.9523 41.3899C90.9701 41.1552 90.9053 40.9217 90.769 40.7298C90.6541 40.5745 90.3869 40.5 89.9924 40.5C89.7101 40.4961 89.4282 40.5242 89.1522 40.5838L87.7388 46.5432H85.5645L87.3428 39.1177L87.4717 39.0789C87.8491 38.9655 88.2871 38.8583 88.7717 38.7589C89.3051 38.6531 89.8478 38.6011 90.3916 38.6036C91.3126 38.6036 92.0038 38.8381 92.4495 39.3041C92.8953 39.77 93.1174 40.3866 93.1174 41.1538Z" fill="#FFD900"/>
<path d="M100.614 39.0493L99.8233 40.8308L99.6105 40.736C99.4396 40.6625 99.2636 40.6013 99.084 40.5528C98.8568 40.4977 98.6235 40.4722 98.3897 40.4767C98.0507 40.4716 97.7153 40.5472 97.4113 40.6972C97.1233 40.8417 96.8701 41.0467 96.6689 41.2983C96.4551 41.5725 96.2935 41.8836 96.192 42.2162C96.0767 42.5878 96.0191 42.9749 96.0212 43.3639C96.019 43.568 96.0425 43.7715 96.0911 43.9697C96.1298 44.1322 96.2017 44.2851 96.3023 44.4185C96.4023 44.5463 96.5356 44.6441 96.6875 44.7012C96.9059 44.7802 97.1372 44.8171 97.3693 44.8099C97.6571 44.8104 97.9436 44.7707 98.2204 44.6919C98.4387 44.6348 98.6509 44.5568 98.8541 44.4589L99.1647 44.3036L99.3558 46.1953L99.2082 46.2652C98.9207 46.3947 98.6224 46.4986 98.3167 46.5758C97.9037 46.6845 97.4779 46.7367 97.0509 46.7311C96.5671 46.7413 96.0859 46.6569 95.6345 46.4826C95.2512 46.3305 94.9057 46.0968 94.6218 45.7977C94.3504 45.5037 94.1469 45.1538 94.0254 44.7726C93.898 44.3709 93.8351 43.9515 93.839 43.5301C93.8355 42.8876 93.9405 42.2491 94.1497 41.6415C94.3486 41.0608 94.6553 40.5228 95.0536 40.0558C95.4532 39.5938 95.9474 39.2231 96.5027 38.9686C97.1134 38.6954 97.7767 38.5597 98.4456 38.571C98.7964 38.5687 99.1465 38.6009 99.4909 38.6673C99.8041 38.7292 100.109 38.8261 100.401 38.9561L100.614 39.0493Z" fill="#FFD900"/>
<path d="M44.1919 51.7373C44.2447 51.8336 44.3053 51.9516 44.3736 52.0914C44.4419 52.2328 44.5134 52.385 44.5879 52.5496C44.6625 52.7142 44.7355 52.8804 44.8085 53.0528C44.8815 53.2252 44.9483 53.3852 45.0135 53.5358L45.2185 53.0528C45.2915 52.8804 45.3645 52.7127 45.439 52.5496C45.5136 52.3865 45.5835 52.239 45.6534 52.0914C45.7233 51.9439 45.7807 51.8336 45.8335 51.7373H46.4548C46.4843 51.9377 46.5107 52.1613 46.5356 52.4098C46.5604 52.6583 46.5822 52.9161 46.6008 53.1864C46.6194 53.4566 46.6381 53.7238 46.6536 53.994C46.6691 54.2643 46.6831 54.5174 46.694 54.7566H46.0323C46.0246 54.4631 46.0122 54.1431 45.9982 53.7983C45.9842 53.4535 45.9625 53.1041 45.9329 52.7531C45.8801 52.8758 45.8227 53.0093 45.7574 53.1584C45.6922 53.3075 45.6301 53.4535 45.568 53.6026C45.5058 53.7517 45.4453 53.8915 45.3862 54.0266L45.2309 54.373H44.7557L44.6081 54.0266C44.5491 53.891 44.4885 53.7497 44.4264 53.6026C44.3627 53.4473 44.3006 53.306 44.2354 53.1584L44.0614 52.7531C44.0324 53.1041 44.0107 53.4525 43.9962 53.7983C43.9822 54.1431 43.9698 54.4631 43.962 54.7566H43.2988C43.3113 54.5174 43.3252 54.2643 43.3408 53.994C43.3563 53.7238 43.3749 53.4551 43.3936 53.1864C43.4122 52.9177 43.434 52.6599 43.4588 52.4098C43.4837 52.1598 43.5101 51.9439 43.5396 51.7373H44.1919Z" fill="#55A301"/>
<path d="M47.1429 53.6268C47.1391 53.4444 47.1707 53.2629 47.2361 53.0925C47.2916 52.9502 47.3756 52.8207 47.483 52.712C47.5821 52.6113 47.7011 52.5325 47.8325 52.4806C47.9621 52.4296 48.1001 52.4033 48.2394 52.403C48.3826 52.3949 48.5258 52.4174 48.6597 52.4688C48.7935 52.5202 48.915 52.5994 49.016 52.7012C49.2202 52.946 49.3216 53.2606 49.2986 53.5787C49.2986 53.616 49.2986 53.6579 49.2986 53.7029C49.2986 53.748 49.2986 53.7868 49.2893 53.8225H47.8185C47.8248 53.8848 47.8448 53.945 47.877 53.9987C47.9092 54.0523 47.9529 54.0983 48.0049 54.1331C48.1369 54.2181 48.2923 54.2594 48.4491 54.2512C48.5668 54.2513 48.6844 54.2404 48.8001 54.2186C48.8966 54.2024 48.9909 54.1753 49.0812 54.1378L49.1682 54.6643C49.1235 54.6867 49.0767 54.7044 49.0284 54.7171C48.9646 54.7359 48.8998 54.7509 48.8343 54.7622C48.7588 54.7769 48.6826 54.7878 48.6059 54.7948C48.525 54.8041 48.4436 54.8088 48.3621 54.8088C48.1788 54.8124 47.9965 54.7813 47.8247 54.7171C47.6818 54.6622 47.5525 54.5769 47.4458 54.4671C47.3447 54.3592 47.2689 54.2303 47.2237 54.0897C47.1722 53.9407 47.1449 53.7844 47.1429 53.6268ZM48.6665 53.3783C48.663 53.3257 48.6537 53.2736 48.6386 53.223C48.6235 53.1718 48.5981 53.1243 48.564 53.0832C48.5295 53.0416 48.4866 53.0078 48.4382 52.9838C48.3791 52.9559 48.3141 52.9426 48.2487 52.945C48.1843 52.9438 48.1203 52.9559 48.0608 52.9807C48.0108 53.0043 47.9664 53.0382 47.9303 53.0801C47.8953 53.1218 47.8684 53.1698 47.8511 53.2215C47.8322 53.2718 47.8182 53.3238 47.8092 53.3768L48.6665 53.3783Z" fill="#55A301"/>
<path d="M51.818 54.6801C51.7606 54.6972 51.6938 54.7142 51.6177 54.7298C51.5416 54.7453 51.4623 54.7593 51.38 54.7717C51.2977 54.7841 51.2138 54.7919 51.1284 54.7997C51.043 54.8074 50.9607 54.8105 50.8815 54.8105C50.7097 54.813 50.5388 54.7852 50.3767 54.7282C50.2362 54.6771 50.1084 54.596 50.0024 54.4906C49.8991 54.3838 49.8196 54.2562 49.7694 54.1163C49.7132 53.9578 49.6859 53.7905 49.6887 53.6224C49.6864 53.4521 49.7099 53.2824 49.7586 53.1192C49.7996 52.9804 49.8677 52.851 49.9589 52.7387C50.0451 52.6343 50.1547 52.5518 50.2789 52.4979C50.4162 52.4412 50.5636 52.4131 50.7122 52.4156C50.7937 52.4149 50.875 52.4238 50.9545 52.442C51.0281 52.4601 51.0998 52.4851 51.1688 52.5166V51.4806L51.818 51.375V54.6801ZM50.3503 53.5929C50.3418 53.7643 50.3893 53.9338 50.4854 54.0759C50.5321 54.1369 50.5931 54.1853 50.663 54.217C50.7329 54.2487 50.8095 54.2627 50.8861 54.2576C50.9436 54.2576 50.998 54.2576 51.0414 54.2576C51.0849 54.2576 51.1315 54.2483 51.1626 54.2421V53.0617C51.1142 53.0326 51.0619 53.0106 51.0073 52.9965C50.9424 52.9792 50.8756 52.9703 50.8085 52.9701C50.503 52.9659 50.3503 53.173 50.3503 53.5913V53.5929Z" fill="#55A301"/>
<path d="M53.1363 51.8026C53.1392 51.855 53.1304 51.9075 53.1105 51.9561C53.0906 52.0047 53.0602 52.0483 53.0214 52.0837C52.9462 52.1498 52.8496 52.1862 52.7496 52.1862C52.6495 52.1862 52.5529 52.1498 52.4778 52.0837C52.4032 52.0091 52.3613 51.908 52.3613 51.8026C52.3613 51.6971 52.4032 51.596 52.4778 51.5215C52.5529 51.4554 52.6495 51.4189 52.7496 51.4189C52.8496 51.4189 52.9462 51.4554 53.0214 51.5215C53.0602 51.5569 53.0906 51.6004 53.1105 51.6491C53.1304 51.6977 53.1392 51.7501 53.1363 51.8026ZM53.0757 54.7535H52.4234V52.4642H53.0726L53.0757 54.7535Z" fill="#55A301"/>
<path d="M53.5791 53.6082C53.5783 53.4495 53.6051 53.2918 53.6584 53.1423C53.7085 52.9988 53.7882 52.8675 53.8923 52.7567C53.9963 52.646 54.1225 52.5583 54.2625 52.4993C54.4193 52.4335 54.588 52.4013 54.758 52.4045C54.8706 52.4035 54.9831 52.4145 55.0934 52.4371C55.1951 52.4588 55.2944 52.49 55.3901 52.5303L55.255 53.0491C55.1895 53.0245 55.1226 53.0037 55.0546 52.9869C54.9746 52.9694 54.8927 52.961 54.8108 52.9621C54.7303 52.9559 54.6495 52.9688 54.575 52.9999C54.5005 53.0309 54.4344 53.0792 54.3821 53.1407C54.283 53.2752 54.233 53.4397 54.2408 53.6066C54.23 53.7769 54.2765 53.9458 54.3728 54.0866C54.4321 54.1488 54.5051 54.1965 54.5859 54.2258C54.6667 54.2552 54.7533 54.2655 54.8387 54.2559C54.923 54.255 55.0072 54.2478 55.0903 54.2341C55.1758 54.2216 55.2594 54.1981 55.3388 54.1642L55.4305 54.6954C55.3395 54.7328 55.2447 54.7604 55.1478 54.7777C55.0246 54.8022 54.8992 54.8142 54.7735 54.8134C54.589 54.8179 54.4054 54.7863 54.233 54.7202C54.0917 54.6635 53.9645 54.5766 53.8603 54.4655C53.7621 54.3554 53.6894 54.2249 53.6475 54.0835C53.6011 53.9293 53.578 53.7691 53.5791 53.6082Z" fill="#55A301"/>
<path d="M56.5765 52.4038C56.7389 52.3997 56.901 52.4217 57.0564 52.469C57.1738 52.5045 57.2805 52.5685 57.367 52.6554C57.4428 52.7397 57.4962 52.8417 57.5224 52.9521C57.556 53.0787 57.5722 53.2093 57.5705 53.3403V54.69C57.4773 54.7102 57.3484 54.7335 57.1838 54.7615C56.9848 54.7912 56.7838 54.8047 56.5827 54.8018C56.4471 54.8034 56.3117 54.7904 56.1789 54.763C56.0682 54.7407 55.9628 54.6974 55.8683 54.6357C55.7825 54.5766 55.7135 54.4963 55.6679 54.4027C55.6183 54.2914 55.5944 54.1704 55.598 54.0486C55.5942 53.9305 55.6221 53.8136 55.6788 53.71C55.7308 53.6189 55.8051 53.5425 55.8947 53.4879C55.9904 53.4302 56.0956 53.3897 56.2053 53.3683C56.3243 53.3431 56.4456 53.3306 56.5672 53.331C56.6419 53.3303 56.7166 53.3339 56.7908 53.3419C56.8432 53.3477 56.8951 53.357 56.9461 53.3699V53.3093C56.9485 53.2606 56.9409 53.2119 56.9238 53.1662C56.9067 53.1206 56.8805 53.0789 56.8467 53.0437C56.7477 52.9661 56.6224 52.9299 56.4973 52.9427C56.3881 52.9432 56.2791 52.9515 56.1711 52.9676C56.0765 52.9805 55.9833 53.0029 55.8931 53.0344L55.8108 52.5125C55.8572 52.4976 55.9044 52.4851 55.9521 52.4752C56.008 52.4628 56.0702 52.4504 56.137 52.4411C56.2037 52.4318 56.2736 52.4209 56.3482 52.4147C56.424 52.407 56.5003 52.4033 56.5765 52.4038ZM56.6293 54.3017C56.693 54.3017 56.7536 54.3017 56.8126 54.3017C56.8588 54.3002 56.905 54.2961 56.9508 54.2893V53.7923C56.9244 53.7923 56.8856 53.7814 56.8343 53.7752C56.7864 53.7693 56.7382 53.7662 56.6899 53.7659C56.6322 53.7662 56.5747 53.7699 56.5175 53.7768C56.4684 53.7832 56.4207 53.7973 56.3761 53.8187C56.3358 53.8374 56.3019 53.8675 56.2787 53.9054C56.2555 53.9432 56.244 53.9871 56.2457 54.0315C56.2411 54.0728 56.2484 54.1145 56.2665 54.1519C56.2846 54.1892 56.3129 54.2207 56.3482 54.2427C56.4351 54.2868 56.532 54.3072 56.6293 54.3017Z" fill="#55A301"/>
<path d="M59.0755 54.7981C58.9206 54.8001 58.7662 54.7791 58.6174 54.736C58.5131 54.7073 58.4172 54.6541 58.3378 54.5807C58.2692 54.5123 58.2209 54.4263 58.198 54.3322C58.1725 54.2248 58.1605 54.1148 58.1623 54.0045V51.4806L58.8099 51.375V53.8709C58.8094 53.923 58.8141 53.975 58.8239 54.0262C58.8302 54.0691 58.8473 54.1098 58.8736 54.1442C58.9019 54.1794 58.9388 54.2067 58.9808 54.2234C59.0404 54.2464 59.1033 54.2595 59.1672 54.2623L59.0755 54.7981Z" fill="#55A301"/>
<path d="M62.6542 52.0586C62.6883 52.1782 62.7272 52.3118 62.7691 52.4624C62.811 52.6131 62.8561 52.7653 62.9042 52.9284C62.9524 53.0915 63.0005 53.2483 63.0487 53.4083C63.0968 53.5683 63.1465 53.7189 63.1931 53.8525C63.2304 53.6972 63.2692 53.5419 63.308 53.3679C63.3469 53.194 63.3857 53.0138 63.4199 52.829C63.454 52.6442 63.4897 52.4578 63.5224 52.273C63.555 52.0881 63.5876 51.9111 63.6171 51.7402H64.3222C64.2187 52.2455 64.1012 52.7575 63.9697 53.2763C63.8382 53.795 63.6942 54.2889 63.5379 54.758H62.9166C62.8141 54.4784 62.7163 54.1864 62.62 53.8805C62.5237 53.5745 62.4305 53.267 62.3373 52.9594C62.2441 53.2701 62.1525 53.5807 62.0593 53.8805C61.9661 54.1802 61.8683 54.4784 61.7673 54.758H61.1461C60.9907 54.291 60.8473 53.7971 60.7158 53.2763C60.5843 52.7555 60.4668 52.2435 60.3633 51.7402H61.0995C61.129 51.9111 61.16 52.0897 61.1958 52.273C61.2315 52.4562 61.2672 52.6426 61.3045 52.829C61.3418 53.0154 61.3806 53.194 61.421 53.3679C61.4613 53.5419 61.5002 53.7034 61.5406 53.8525C61.5934 53.7096 61.6446 53.559 61.6959 53.399C61.7471 53.239 61.7922 53.079 61.8388 52.9206C61.8854 52.7622 61.9288 52.61 61.9677 52.4547C62.0065 52.2994 62.0422 52.1751 62.0748 52.0586H62.6542Z" fill="#55A301"/>
<path d="M64.4573 53.6269C64.4535 53.4444 64.4852 53.263 64.5505 53.0926C64.6066 52.9505 64.6906 52.8212 64.7975 52.7121C64.8971 52.6113 65.0166 52.5325 65.1485 52.4806C65.2781 52.4295 65.4161 52.4032 65.5554 52.403C65.6986 52.3949 65.8419 52.4173 65.9757 52.4687C66.1096 52.5201 66.231 52.5993 66.332 52.7012C66.5362 52.9461 66.6376 53.2606 66.6146 53.5787C66.6146 53.616 66.6146 53.6579 66.6146 53.703C66.6146 53.748 66.6146 53.7868 66.6069 53.8226H65.1345C65.1411 53.885 65.1613 53.9451 65.1938 53.9988C65.2263 54.0525 65.2702 54.0984 65.3224 54.1332C65.4544 54.2183 65.6098 54.2596 65.7666 54.2512C65.8839 54.2513 66.0009 54.2404 66.1161 54.2186C66.2126 54.2024 66.3069 54.1754 66.3972 54.1378L66.4842 54.6644C66.4395 54.6868 66.3927 54.7045 66.3444 54.7172C66.2811 54.7359 66.2168 54.751 66.1518 54.7622C66.0804 54.7757 66.0043 54.7865 65.9235 54.7948C65.8426 54.8041 65.7611 54.8087 65.6797 54.8088C65.4958 54.8126 65.313 54.7815 65.1407 54.7172C64.9978 54.6623 64.8685 54.5769 64.7618 54.4671C64.6608 54.3593 64.5849 54.2304 64.5397 54.0897C64.4884 53.9406 64.4606 53.7845 64.4573 53.6269ZM65.981 53.3784C65.9783 53.3256 65.9689 53.2734 65.953 53.223C65.9378 53.1722 65.9131 53.1248 65.88 53.0833C65.8446 53.042 65.8013 53.0082 65.7527 52.9839C65.6936 52.9558 65.6285 52.9424 65.5632 52.945C65.4992 52.9437 65.4357 52.9558 65.3768 52.9808C65.3263 53.0036 65.2817 53.0376 65.2463 53.0802C65.2102 53.1214 65.1828 53.1695 65.1656 53.2215C65.1473 53.272 65.1333 53.324 65.1236 53.3768L65.981 53.3784Z" fill="#55A301"/>
<path d="M67.8189 51.8026C67.8218 51.855 67.813 51.9075 67.7931 51.9561C67.7732 52.0047 67.7428 52.0483 67.704 52.0837C67.6288 52.1498 67.5322 52.1862 67.4322 52.1862C67.3321 52.1862 67.2355 52.1498 67.1604 52.0837C67.0858 52.0091 67.0439 51.908 67.0439 51.8026C67.0439 51.6971 67.0858 51.596 67.1604 51.5215C67.2355 51.4554 67.3321 51.4189 67.4322 51.4189C67.5322 51.4189 67.6288 51.4554 67.704 51.5215C67.7428 51.5569 67.7732 51.6004 67.7931 51.6491C67.813 51.6977 67.8218 51.7501 67.8189 51.8026ZM67.7583 54.7535H67.1091V52.4642H67.7583V54.7535Z" fill="#55A301"/>
<path d="M70.3453 54.4678C70.3453 54.8416 70.2505 55.119 70.061 55.3002C69.8715 55.4814 69.5775 55.5726 69.1788 55.5736C69.0388 55.5735 68.8989 55.561 68.7611 55.5363C68.6294 55.5135 68.4996 55.4807 68.3728 55.4385L68.4861 54.8933C68.5896 54.9352 68.6967 54.9674 68.8061 54.9896C68.932 55.014 69.06 55.0254 69.1882 55.0238C69.2584 55.031 69.3294 55.024 69.397 55.0032C69.4645 54.9823 69.5271 54.9482 69.5811 54.9026C69.6595 54.8186 69.7013 54.7069 69.6976 54.592V54.5097C69.6284 54.5411 69.556 54.5651 69.4817 54.5811C69.402 54.5977 69.3208 54.6061 69.2394 54.606C69.1052 54.6144 68.9707 54.5936 68.8452 54.5451C68.7197 54.4965 68.6062 54.4214 68.5126 54.3249C68.3332 54.1037 68.2434 53.8232 68.2609 53.539C68.2576 53.3802 68.2839 53.2222 68.3386 53.0731C68.3885 52.9396 68.4663 52.8183 68.5669 52.7174C68.6725 52.6166 68.7978 52.5389 68.935 52.4891C69.0931 52.4336 69.2598 52.4063 69.4273 52.4083C69.505 52.4083 69.5827 52.4083 69.6681 52.4192C69.7535 52.4301 69.8343 52.4363 69.915 52.4487C69.9958 52.4611 70.0703 52.4735 70.148 52.4891C70.2257 52.5046 70.2878 52.5217 70.3453 52.5403V54.4678ZM68.9226 53.5359C68.9226 53.8983 69.0691 54.0795 69.3621 54.0795C69.4252 54.0805 69.4881 54.0716 69.5485 54.0531C69.6025 54.0391 69.6546 54.0187 69.7038 53.9925V52.9566C69.6712 52.9566 69.6339 52.9457 69.5904 52.941C69.5387 52.9383 69.4868 52.9383 69.4351 52.941C69.3622 52.9355 69.289 52.948 69.2221 52.9776C69.1551 53.0071 69.0965 53.0527 69.0515 53.1103C68.9639 53.2347 68.9188 53.3839 68.9226 53.5359Z" fill="#55A301"/>
<path d="M70.9561 54.7546V51.4806L71.6053 51.375V52.4731C71.7232 52.4347 71.8462 52.4137 71.9703 52.4109C72.129 52.4065 72.2871 52.4324 72.4362 52.487C72.5516 52.5323 72.6533 52.6066 72.7313 52.7029C72.8074 52.8001 72.8605 52.9132 72.8866 53.0337C72.919 53.1738 72.9346 53.3171 72.9332 53.4609V54.7546H72.284V53.5401C72.2959 53.3875 72.2681 53.2345 72.2032 53.0959C72.1698 53.0493 72.1245 53.0125 72.0721 52.9893C72.0197 52.966 71.962 52.9573 71.905 52.9639C71.8503 52.9641 71.7957 52.9693 71.7419 52.9794L71.6053 53.012V54.7546H70.9561Z" fill="#55A301"/>
<path d="M73.4962 51.8941L74.1454 51.79V52.4641H74.9219V53.0046H74.1454V53.8091C74.1398 53.9227 74.1645 54.0358 74.2168 54.1368C74.2499 54.1808 74.2941 54.2152 74.3449 54.2365C74.3956 54.2578 74.4511 54.2652 74.5057 54.258C74.5781 54.258 74.6504 54.2513 74.7216 54.2378C74.791 54.2263 74.8591 54.2081 74.925 54.1834L75.0151 54.6897C74.9302 54.7234 74.843 54.7509 74.7542 54.7721C74.6384 54.7972 74.5201 54.8087 74.4016 54.8062C74.2519 54.8111 74.1026 54.7868 73.9621 54.7348C73.8539 54.6928 73.7582 54.6238 73.6841 54.5344C73.6114 54.444 73.5614 54.3375 73.5381 54.2238C73.509 54.0907 73.495 53.9547 73.4962 53.8184V51.8941Z" fill="#55A301"/>
<path d="M78.5572 54.1711V54.755H76.5381V51.7373H77.2168V54.1711H78.5572Z" fill="#55A301"/>
<path d="M81.0914 53.6055C81.0929 53.7733 81.0667 53.9402 81.0138 54.0994C80.9653 54.241 80.8881 54.3711 80.787 54.4815C80.6874 54.5882 80.5661 54.6724 80.4314 54.7284C80.1348 54.8443 79.8054 54.8443 79.5088 54.7284C79.3743 54.6727 79.2534 54.5885 79.1547 54.4815C79.0522 54.3713 78.9735 54.2412 78.9233 54.0994C78.8666 53.941 78.8387 53.7737 78.8409 53.6055C78.8388 53.4377 78.8672 53.2708 78.9248 53.1132C78.9769 52.9721 79.0572 52.8431 79.1609 52.7342C79.2616 52.6289 79.3833 52.5458 79.5181 52.4903C79.6609 52.4315 79.8141 52.4019 79.9685 52.4034C80.1245 52.4019 80.2792 52.4315 80.4236 52.4903C80.5577 52.5455 80.6784 52.6286 80.7777 52.7342C80.8799 52.8434 80.9587 52.9724 81.0091 53.1132C81.0655 53.2711 81.0933 53.4378 81.0914 53.6055ZM80.4298 53.6055C80.4387 53.4391 80.397 53.274 80.3102 53.1318C80.2724 53.0767 80.2212 53.0321 80.1614 53.0023C80.1017 52.9724 80.0353 52.9582 79.9685 52.9609C79.9013 52.9582 79.8345 52.9724 79.7743 53.0023C79.714 53.0321 79.6623 53.0767 79.6237 53.1318C79.5357 53.2735 79.4935 53.4389 79.5026 53.6055C79.4939 53.773 79.5361 53.9392 79.6237 54.0823C79.6615 54.1385 79.713 54.1841 79.7733 54.2148C79.8337 54.2455 79.9009 54.2603 79.9685 54.2578C80.0358 54.2604 80.1025 54.2456 80.1624 54.2149C80.2222 54.1841 80.2732 54.1385 80.3102 54.0823C80.3965 53.9388 80.4382 53.7728 80.4298 53.6055Z" fill="#55A301"/>
<path d="M82.2442 54.2885C82.3297 54.2937 82.4152 54.2815 82.4959 54.2528C82.5206 54.2406 82.541 54.2211 82.5543 54.1969C82.5676 54.1728 82.5733 54.1451 82.5704 54.1177C82.5679 54.0884 82.5576 54.0604 82.5407 54.0364C82.5238 54.0124 82.5008 53.9933 82.4741 53.981C82.3816 53.9282 82.2843 53.884 82.1837 53.849C82.0812 53.8102 81.9895 53.7713 81.9072 53.731C81.8294 53.6941 81.758 53.6448 81.696 53.585C81.6368 53.5283 81.5907 53.4594 81.5609 53.3831C81.5265 53.2923 81.5101 53.1958 81.5127 53.0988C81.5097 53.0011 81.5298 52.904 81.5713 52.8155C81.6129 52.727 81.6748 52.6495 81.7519 52.5894C81.9439 52.4555 82.1752 52.3898 82.4089 52.403C82.5433 52.4025 82.6775 52.415 82.8096 52.4403C82.9151 52.4583 83.019 52.4848 83.1202 52.5195L83.0084 53.0258C82.9274 52.998 82.845 52.9747 82.7614 52.9559C82.6635 52.9345 82.5635 52.9241 82.4632 52.9249C82.2598 52.9249 82.1526 52.9823 82.1526 53.0957C82.1525 53.1191 82.1568 53.1422 82.165 53.1641C82.1767 53.1883 82.195 53.2088 82.2178 53.2231C82.2518 53.2467 82.2877 53.2674 82.325 53.2852C82.3701 53.307 82.4275 53.3303 82.4959 53.3567C82.6171 53.3994 82.735 53.4513 82.8484 53.512C82.9303 53.5546 83.0048 53.6102 83.069 53.6766C83.1213 53.7335 83.16 53.8014 83.1823 53.8754C83.2055 53.9572 83.2165 54.042 83.215 54.127C83.2202 54.2271 83.1995 54.3269 83.1549 54.4167C83.1103 54.5065 83.0432 54.5833 82.9602 54.6395C82.7428 54.7682 82.4918 54.8288 82.2396 54.8135C82.0687 54.8173 81.8981 54.7996 81.7317 54.7607C81.6364 54.739 81.5429 54.7099 81.4521 54.6737L81.5609 54.1472C81.6708 54.1905 81.784 54.2248 81.8995 54.2497C82.0127 54.2747 82.1283 54.2878 82.2442 54.2885Z" fill="#55A301"/>
<path d="M84.3595 54.2886C84.4454 54.2937 84.5315 54.2816 84.6126 54.2529C84.6374 54.2407 84.6578 54.2212 84.6711 54.1971C84.6844 54.1729 84.6901 54.1452 84.6872 54.1178C84.6847 54.0885 84.6744 54.0605 84.6575 54.0365C84.6406 54.0125 84.6176 53.9934 84.5909 53.9811C84.4978 53.9283 84.4001 53.8842 84.2989 53.8491C84.198 53.8103 84.1048 53.7715 84.0225 53.7311C83.945 53.6934 83.8738 53.6442 83.8112 53.5851C83.753 53.5276 83.7071 53.4589 83.6761 53.3832C83.6425 53.2923 83.6261 53.1959 83.628 53.0989C83.6251 53.0011 83.6454 52.9039 83.6873 52.8154C83.7291 52.7268 83.7913 52.6495 83.8687 52.5895C84.0604 52.4551 84.2919 52.3895 84.5257 52.4031C84.6601 52.4026 84.7943 52.4151 84.9264 52.4404C85.0318 52.4587 85.1357 52.4851 85.237 52.5196L85.1236 53.0259C85.0432 52.998 84.9613 52.9746 84.8782 52.9561C84.7803 52.9346 84.6803 52.9242 84.58 52.925C84.3766 52.925 84.2694 52.9825 84.2694 53.0958C84.2683 53.1193 84.2726 53.1426 84.2818 53.1642C84.2935 53.1884 84.3118 53.2089 84.3346 53.2232C84.3678 53.2472 84.4032 53.268 84.4402 53.2853C84.4853 53.3071 84.5428 53.3304 84.6126 53.3568C84.7338 53.3998 84.8516 53.4517 84.9652 53.5121C85.0471 53.5547 85.1216 53.6103 85.1858 53.6767C85.237 53.7344 85.2756 53.8021 85.2991 53.8755C85.3223 53.9573 85.3333 54.0421 85.3317 54.1271C85.337 54.2273 85.3163 54.327 85.2717 54.4168C85.2271 54.5066 85.16 54.5834 85.077 54.6397C84.8595 54.7682 84.6086 54.8287 84.3564 54.8136C84.1855 54.8174 84.0149 54.7997 83.8485 54.7608C83.7528 54.7388 83.6588 54.7097 83.5674 54.6738L83.6761 54.1473C83.7865 54.1908 83.9002 54.2251 84.0162 54.2498C84.129 54.2748 84.244 54.2879 84.3595 54.2886Z" fill="#55A301"/>
<path d="M88.2782 54.8157C87.789 54.8157 87.4147 54.679 87.1584 54.4057C86.9022 54.1323 86.7717 53.7456 86.7717 53.2439C86.7683 53.0158 86.8083 52.7892 86.8897 52.5761C86.9628 52.3914 87.0734 52.2237 87.2143 52.0837C87.3522 51.9458 87.5187 51.8397 87.702 51.7731C87.8986 51.702 88.1064 51.6668 88.3155 51.669C88.4321 51.6681 88.5485 51.6775 88.6634 51.697C88.7563 51.713 88.8481 51.7348 88.9383 51.7622C89.0051 51.7834 89.0705 51.8088 89.134 51.8383C89.1853 51.8647 89.2241 51.8849 89.2474 51.9005L89.0517 52.4487C88.9484 52.3952 88.8395 52.353 88.7271 52.3229C88.5899 52.2858 88.4483 52.268 88.3062 52.2701C88.2003 52.2693 88.0952 52.2872 87.9956 52.3229C87.8953 52.3569 87.8044 52.4138 87.73 52.4891C87.6472 52.5746 87.5837 52.6768 87.5436 52.7889C87.4949 52.9312 87.4717 53.0811 87.4753 53.2315C87.4737 53.3628 87.4889 53.4938 87.5203 53.6213C87.5473 53.734 87.5975 53.8398 87.6678 53.932C87.7397 54.0212 87.8318 54.092 87.9365 54.1385C88.063 54.1927 88.1997 54.2187 88.3372 54.2146C88.4261 54.215 88.5148 54.2093 88.6028 54.1976C88.6805 54.1851 88.7581 54.1712 88.811 54.1556C88.864 54.1414 88.9159 54.1233 88.9663 54.1013L89.0921 54.0453L89.28 54.5889C89.1527 54.6592 89.0163 54.7114 88.8746 54.7443C88.6797 54.7935 88.4793 54.8175 88.2782 54.8157Z" fill="#55A301"/>
<path d="M89.5189 53.6269C89.5148 53.4443 89.547 53.2626 89.6136 53.0926C89.6692 52.9506 89.7527 52.8212 89.859 52.7121C89.9587 52.6113 90.0782 52.5325 90.2101 52.4806C90.3396 52.4295 90.4777 52.4032 90.617 52.403C90.7601 52.3949 90.9034 52.4173 91.0373 52.4687C91.1712 52.5201 91.2926 52.5993 91.3935 52.7012C91.5978 52.9461 91.6991 53.2606 91.6762 53.5787C91.6762 53.616 91.6762 53.6579 91.6762 53.703C91.6762 53.748 91.6762 53.7868 91.6684 53.8226H90.1961C90.203 53.8849 90.2233 53.9449 90.2558 53.9986C90.2883 54.0522 90.332 54.0982 90.384 54.1332C90.5159 54.2183 90.6714 54.2596 90.8282 54.2512C90.9454 54.2514 91.0625 54.2404 91.1777 54.2186C91.2742 54.2027 91.3685 54.1756 91.4588 54.1378L91.5457 54.6644C91.5015 54.6865 91.4552 54.7042 91.4075 54.7172C91.3437 54.7357 91.2789 54.7508 91.2134 54.7622C91.1419 54.7757 91.0658 54.7865 90.9851 54.7948C90.9041 54.8041 90.8227 54.8087 90.7412 54.8088C90.5574 54.8124 90.3746 54.7813 90.2023 54.7172C90.0596 54.6627 89.9307 54.5773 89.8249 54.4671C89.7228 54.3601 89.6468 54.2309 89.6028 54.0897C89.5503 53.9409 89.522 53.7846 89.5189 53.6269ZM91.0441 53.3784C91.0408 53.3256 91.0309 53.2734 91.0146 53.223C90.9994 53.1722 90.9746 53.1248 90.9416 53.0833C90.9062 53.042 90.8629 53.0082 90.8142 52.9839C90.7551 52.9558 90.6901 52.9424 90.6247 52.945C90.5608 52.944 90.4974 52.9562 90.4384 52.9808C90.3879 53.0036 90.3433 53.0376 90.3079 53.0802C90.2718 53.1214 90.2443 53.1695 90.2271 53.2215C90.2089 53.272 90.1948 53.324 90.1852 53.3768L91.0441 53.3784Z" fill="#55A301"/>
<path d="M92.1717 52.5495C92.3115 52.5107 92.4536 52.4806 92.5972 52.4594C92.7791 52.4308 92.9629 52.4168 93.147 52.4175C93.3118 52.4132 93.476 52.4389 93.6316 52.4936C93.7521 52.5374 93.8592 52.6118 93.9422 52.7094C94.0169 52.8074 94.0699 52.9202 94.0975 53.0403C94.1299 53.1803 94.1455 53.3237 94.1441 53.4674V54.7611H93.4965V53.5466C93.5085 53.3937 93.4795 53.2404 93.4126 53.1024C93.3772 53.0548 93.3298 53.0174 93.2752 52.9942C93.2206 52.971 93.1608 52.9628 93.102 52.9704C93.0554 52.9704 93.0072 52.9704 92.9544 52.9781C92.9016 52.9859 92.855 52.9875 92.8146 52.9921V54.7549H92.167L92.1717 52.5495Z" fill="#55A301"/>
<path d="M94.7139 51.8941L95.3616 51.79V52.4641H96.1381V53.0046H95.3616V53.8091C95.3565 53.9229 95.3817 54.036 95.4346 54.1368C95.4677 54.1808 95.5119 54.2152 95.5626 54.2365C95.6134 54.2578 95.6689 54.2652 95.7234 54.258C95.7959 54.258 95.8682 54.2512 95.9393 54.2378C96.0083 54.2265 96.076 54.2083 96.1412 54.1834L96.2329 54.6897C96.148 54.7234 96.0608 54.7509 95.9719 54.7721C95.8562 54.7971 95.7378 54.8086 95.6194 54.8062C95.4696 54.8113 95.3203 54.787 95.1798 54.7348C95.0714 54.6924 94.9752 54.6236 94.9003 54.5344C94.8282 54.4436 94.7782 54.3373 94.7543 54.2238C94.7265 54.0905 94.713 53.9546 94.7139 53.8184V51.8941Z" fill="#55A301"/>
<path d="M96.472 53.6269C96.4679 53.4443 96.5001 53.2627 96.5668 53.0926C96.6223 52.9507 96.7058 52.8213 96.8122 52.7121C96.9118 52.6114 97.0313 52.5325 97.1632 52.4807C97.2928 52.4296 97.4308 52.4032 97.5701 52.403C97.7133 52.3948 97.8566 52.4172 97.9905 52.4686C98.1244 52.52 98.2458 52.5993 98.3467 52.7012C98.5509 52.9461 98.6523 53.2607 98.6293 53.5788C98.6293 53.616 98.6293 53.658 98.6293 53.703C98.6293 53.748 98.6293 53.7869 98.6216 53.8226H97.1383C97.1452 53.8849 97.1656 53.945 97.1981 53.9986C97.2305 54.0523 97.2743 54.0982 97.3263 54.1332C97.4588 54.2215 97.6161 54.2651 97.7751 54.2575C97.8924 54.2576 98.0094 54.2467 98.1246 54.2249C98.2211 54.2089 98.3154 54.1818 98.4057 54.1441L98.4927 54.6706C98.4485 54.6928 98.4022 54.7105 98.3544 54.7234C98.2906 54.742 98.2258 54.757 98.1603 54.7685C98.0888 54.7819 98.0127 54.7928 97.932 54.8011C97.851 54.8103 97.7696 54.815 97.6881 54.815C97.5043 54.8187 97.3215 54.7876 97.1492 54.7234C97.0065 54.6689 96.8776 54.5835 96.7718 54.4734C96.6697 54.3663 96.5937 54.2372 96.5497 54.0959C96.4986 53.9448 96.4724 53.7864 96.472 53.6269ZM97.9972 53.3784C97.9939 53.3256 97.984 53.2734 97.9677 53.2231C97.9525 53.1722 97.9278 53.1248 97.8947 53.0833C97.8593 53.042 97.816 53.0082 97.7673 52.9839C97.7083 52.9558 97.6432 52.9425 97.5779 52.9451C97.5139 52.9441 97.4505 52.9562 97.3915 52.9808C97.341 53.0036 97.2964 53.0376 97.261 53.0802C97.2249 53.1214 97.1975 53.1695 97.1803 53.2215C97.162 53.272 97.148 53.324 97.1383 53.3768L97.9972 53.3784Z" fill="#55A301"/>
<path d="M100.504 53.0383C100.447 53.0243 100.378 53.0088 100.301 52.9932C100.217 52.976 100.133 52.9677 100.048 52.9684C99.9987 52.9695 99.95 52.9731 99.9016 52.9793C99.858 52.9843 99.8149 52.9926 99.7727 53.0041V54.7545H99.125V52.5801C99.2599 52.5334 99.3973 52.4946 99.5366 52.4636C99.71 52.4259 99.8871 52.4077 100.065 52.4093C100.1 52.4093 100.142 52.4093 100.19 52.4093C100.239 52.4093 100.29 52.4201 100.346 52.4279C100.402 52.4357 100.444 52.4434 100.501 52.4528C100.544 52.4616 100.586 52.4741 100.627 52.49L100.504 53.0383Z" fill="#55A301"/>
<path d="M85.5796 5.64453C85.5796 5.64453 81.5958 10.057 80.8721 14.2908C80.1483 18.5247 83.312 23.5102 88.6005 26.1739C88.6005 26.1739 93.2505 21.3592 91.817 16.2462C90.3835 11.1333 85.3327 11.5837 85.5796 5.64453Z" fill="#55A301"/>
<path d="M88.7682 24.9633C88.8494 24.0167 88.8531 23.0651 88.7791 22.118C88.7119 21.1851 88.5785 20.2581 88.3799 19.3441C88.3364 19.1158 88.2681 18.8906 88.2153 18.6638L88.133 18.3237L88.032 17.9882C87.9652 17.763 87.8969 17.5393 87.8332 17.3126C87.7695 17.0858 87.6779 16.8715 87.5987 16.6478L87.4853 16.3123C87.4465 16.2005 87.3968 16.0949 87.3549 15.9831C87.2663 15.7641 87.1809 15.5435 87.0955 15.3199C87.0101 15.0962 86.9045 14.8835 86.8144 14.6598C86.7243 14.4362 86.628 14.2172 86.541 13.9873C86.6963 14.1706 86.8516 14.3601 87.007 14.5511C87.0831 14.6458 87.1545 14.7452 87.2291 14.8415C87.304 14.9378 87.374 15.0379 87.4387 15.1413C87.5676 15.3463 87.6965 15.5544 87.8208 15.7625C87.8845 15.8666 87.9497 15.9707 88.0056 16.0732L88.1609 16.4024C88.2681 16.6214 88.3722 16.8435 88.4716 17.0656C88.571 17.2877 88.644 17.5316 88.7294 17.7552C88.7729 17.8701 88.8133 17.9866 88.8521 18.1031L88.953 18.4572C89.0136 18.6949 89.0866 18.9232 89.1347 19.1717C89.3476 20.1348 89.4333 21.1217 89.3895 22.1071C89.3606 23.0894 89.15 24.0578 88.7682 24.9633Z" fill="white"/>
<path d="M114.159 22.3919C114.159 22.3919 111.738 29.6916 107.434 33.2079C103.13 36.7242 95.5028 36.3437 89.1318 32.0943C89.1318 32.0943 91.5765 23.7913 98.2487 22.1387C104.921 20.4862 107.633 26.4565 114.159 22.3919Z" fill="#55A301"/>
<path d="M90.2822 31.1157C91.0588 30.1294 92.0699 29.3389 93.1415 28.6788L93.5469 28.4303C93.682 28.348 93.8249 28.275 93.9647 28.2066C94.2443 28.0622 94.5223 27.91 94.8158 27.7904C95.1094 27.6708 95.3951 27.5357 95.6918 27.4239L96.5895 27.1132C96.7371 27.0589 96.8924 27.0263 97.0446 26.9843L97.5105 26.8647L97.9765 26.7482C98.1318 26.7172 98.2871 26.6908 98.4424 26.6628C98.753 26.61 99.0637 26.5557 99.3743 26.5075C99.6849 26.4594 99.9955 26.4516 100.317 26.4283L100.783 26.3926C100.938 26.3926 101.094 26.3926 101.249 26.3926L102.19 26.4066C102.268 26.4066 102.345 26.4066 102.425 26.4159L102.659 26.4407C102.814 26.4578 102.97 26.4718 103.125 26.492C103.436 26.5293 103.746 26.5681 104.057 26.6162C103.746 26.6551 103.436 26.6815 103.125 26.7079C102.97 26.7218 102.814 26.7296 102.659 26.7405L102.429 26.7576C102.352 26.7576 102.274 26.7778 102.199 26.7871L101.283 26.9005C101.128 26.9222 100.972 26.93 100.826 26.9548L100.374 27.034C100.073 27.0879 99.7719 27.1396 99.4706 27.1893L98.5791 27.3912L98.1333 27.4875L97.6953 27.6133C97.4034 27.6972 97.1067 27.7687 96.8178 27.8618C95.6567 28.2241 94.5253 28.6754 93.4335 29.2115C92.3267 29.7479 91.2718 30.3853 90.2822 31.1157Z" fill="white"/>
</svg>
